Pontano-Medium.ufo
<glyph name="numbersign" format="1">
  <advance width="1221"/>
  <unicode hex="0023"/>
  <outline>
    <contour>
      <point x="128" y="-1" type="line"/>
      <point x="315" y="0" type="line"/>
      <point x="424" y="531" type="line"/>
      <point x="676" y="531" type="line"/>
      <point x="569" y="-1" type="line"/>
      <point x="756" y="0" type="line"/>
      <point x="865" y="531" type="line"/>
      <point x="1073" y="531" type="line"/>
      <point x="1112" y="667" type="line"/>
      <point x="892" y="667" type="line"/>
      <point x="938" y="882" type="line"/>
      <point x="1143" y="882" type="line"/>
      <point x="1179" y="1018" type="line"/>
      <point x="965" y="1018" type="line"/>
      <point x="1057" y="1464" type="line"/>
      <point x="864" y="1464" type="line"/>
      <point x="774" y="1018" type="line"/>
      <point x="525" y="1018" type="line"/>
      <point x="617" y="1464" type="line"/>
      <point x="424" y="1464" type="line"/>
      <point x="334" y="1018" type="line"/>
      <point x="153" y="1018" type="line"/>
      <point x="117" y="882" type="line"/>
      <point x="307" y="882" type="line"/>
      <point x="262" y="667" type="line"/>
      <point x="86" y="667" type="line"/>
      <point x="47" y="531" type="line"/>
      <point x="235" y="531" type="line"/>
    </contour>
    <contour>
      <point x="451" y="667" type="line"/>
      <point x="497" y="882" type="line"/>
      <point x="746" y="882" type="line"/>
      <point x="704" y="667" type="line"/>
    </contour>
  </outline>
</glyph>
<glyph name="dollar" format="1">
  <advance width="1216"/>
  <unicode hex="0024"/>
  <outline>
    <contour>
      <point x="585" y="-204" type="line"/>
      <point x="708" y="-204" type="line"/>
      <point x="708" y="1672" type="line"/>
      <point x="585" y="1672" type="line"/>
    </contour>
    <component base="S"/>
  </outline>
</glyph>
<glyph name="ampersand" format="1">
  <advance width="1430"/>
  <unicode hex="0026"/>
  <outline>
    <contour>
      <point x="673" y="1491" type="curve" smooth="yes"/>
      <point x="479.818" y="1491"/>
      <point x="317.144" y="1385.37"/>
      <point x="317.144" y="1183.24" type="curve" smooth="yes"/>
      <point x="317.144" y="1098.89"/>
      <point x="343.886" y="1026.26"/>
      <point x="410" y="952" type="curve" smooth="yes"/>
      <point x="1279" y="-33" type="line"/>
      <point x="1405" y="82" type="line"/>
      <point x="583" y="1003" type="line" smooth="yes"/>
      <point x="529.714" y="1062.5"/>
      <point x="504.822" y="1125.16"/>
      <point x="504.822" y="1185.37" type="curve" smooth="yes"/>
      <point x="504.822" y="1268.11"/>
      <point x="566.656" y="1328"/>
      <point x="678" y="1328" type="curve" smooth="yes"/>
      <point x="779.418" y="1328"/>
      <point x="841.727" y="1267.74"/>
      <point x="841.727" y="1189.21" type="curve" smooth="yes"/>
      <point x="841.727" y="1121.86"/>
      <point x="800.033" y="1022.42"/>
      <point x="530" y="917" type="curve" smooth="yes"/>
      <point x="226.122" y="798.658"/>
      <point x="97.9662" y="651.07"/>
      <point x="97.9662" y="412.462" type="curve" smooth="yes"/>
      <point x="97.9662" y="169.05"/>
      <point x="294.179" y="-25"/>
      <point x="582" y="-25" type="curve" smooth="yes"/>
      <point x="865" y="-25"/>
      <point x="1238" y="108"/>
      <point x="1328" y="778" type="curve"/>
      <point x="1158" y="803" type="line"/>
      <point x="1091" y="318"/>
      <point x="869" y="139"/>
      <point x="613" y="139" type="curve" smooth="yes"/>
      <point x="387.881" y="139"/>
      <point x="301.822" y="270.253"/>
      <point x="301.822" y="432.183" type="curve" smooth="yes"/>
      <point x="301.822" y="565.823"/>
      <point x="368.014" y="678.816"/>
      <point x="633" y="805" type="curve" smooth="yes"/>
      <point x="921" y="943"/>
      <point x="1020" y="1034"/>
      <point x="1020" y="1211" type="curve" smooth="yes"/>
      <point x="1020" y="1393"/>
      <point x="861" y="1491"/>
    </contour>
  </outline>
</glyph>
<glyph name="quotesingle" format="1">
  <advance width="280"/>
  <unicode hex="0027"/>
  <outline>
    <contour>
      <point x="116" y="961" type="line"/>
      <point x="196" y="961" type="line"/>
      <point x="263" y="1503" type="line"/>
      <point x="48" y="1503" type="line"/>
    </contour>
  </outline>
</glyph>
<glyph name="parenleft" format="1">
  <advance width="602"/>
  <unicode hex="0028"/>
  <outline>
    <contour>
      <point x="523" y="-181" type="curve"/>
      <point x="562" y="-62" type="line"/>
      <point x="327" y="11"/>
      <point x="214" y="289"/>
      <point x="214" y="703" type="curve" smooth="yes"/>
      <point x="214" y="1117"/>
      <point x="327" y="1395"/>
      <point x="562" y="1468" type="curve"/>
      <point x="523" y="1587" type="line"/>
      <point x="232" y="1518"/>
      <point x="3" y="1242"/>
      <point x="3" y="703" type="curve" smooth="yes"/>
      <point x="3" y="164"/>
      <point x="232" y="-112"/>
    </contour>
  </outline>
</glyph>
<glyph name="asterisk" format="1">
  <advance width="826"/>
  <unicode hex="002A"/>
  <outline>
    <contour>
      <point x="362" y="755" type="line"/>
      <point x="471" y="755" type="line"/>
      <point x="464" y="1036" type="line"/>
      <point x="720" y="880" type="line"/>
      <point x="775" y="984" type="line"/>
      <point x="508" y="1114" type="line"/>
      <point x="774" y="1244" type="line"/>
      <point x="719" y="1348" type="line"/>
      <point x="464" y="1195" type="line"/>
      <point x="471" y="1472" type="line"/>
      <point x="362" y="1472" type="line"/>
      <point x="368" y="1194" type="line"/>
      <point x="112" y="1347" type="line"/>
      <point x="57" y="1243" type="line"/>
      <point x="324" y="1113" type="line"/>
      <point x="58" y="983" type="line"/>
      <point x="113" y="879" type="line"/>
      <point x="368" y="1035" type="line"/>
    </contour>
  </outline>
</glyph>
<glyph name="plus" format="1">
  <advance width="860"/>
  <unicode hex="002B"/>
  <outline>
    <contour>
      <point x="356" y="350" type="line"/>
      <point x="498" y="350" type="line"/>
      <point x="498" y="656" type="line"/>
      <point x="778" y="656" type="line"/>
      <point x="778" y="796" type="line"/>
      <point x="498" y="796" type="line"/>
      <point x="498" y="1100" type="line"/>
      <point x="356" y="1100" type="line"/>
      <point x="356" y="796" type="line"/>
      <point x="72" y="796" type="line"/>
      <point x="72" y="656" type="line"/>
      <point x="356" y="656" type="line"/>
    </contour>
  </outline>
</glyph>
<glyph name="slash" format="1">
  <advance width="592"/>
  <unicode hex="002F"/>
  <outline>
    <contour>
      <point x="193" y="-45" type="line"/>
      <point x="621" y="1497" type="line"/>
      <point x="458" y="1534" type="line"/>
      <point x="43" y="-8" type="line"/>
    </contour>
  </outline>
</glyph>
<glyph name="one" format="1">
  <advance width="895"/>
  <unicode hex="0031"/>
  <outline>
    <contour>
      <point x="411" y="0" type="line"/>
      <point x="617" y="0" type="line"/>
      <point x="617" y="1464" type="line"/>
      <point x="438" y="1464" type="line"/>
      <point x="127" y="1335" type="line"/>
      <point x="187" y="1172" type="line"/>
      <point x="411" y="1272" type="line"/>
    </contour>
  </outline>
</glyph>
<glyph name="two" format="1">
  <advance width="1246"/>
  <unicode hex="0032"/>
  <outline>
    <contour>
      <point x="1073.15" y="1034.07" type="curve" smooth="yes"/>
      <point x="1073.15" y="1344.58"/>
      <point x="883.286" y="1489"/>
      <point x="617" y="1489" type="curve" smooth="yes"/>
      <point x="392" y="1489"/>
      <point x="234" y="1394"/>
      <point x="117" y="1141" type="curve"/>
      <point x="297" y="1069" type="line"/>
      <point x="381" y="1240"/>
      <point x="474" y="1326"/>
      <point x="629" y="1326" type="curve" smooth="yes"/>
      <point x="777" y="1326"/>
      <point x="867" y="1215"/>
      <point x="867" y="1051" type="curve" smooth="yes"/>
      <point x="867" y="599"/>
      <point x="168" y="537"/>
      <point x="161" y="0" type="curve"/>
      <point x="1075" y="0" type="line"/>
      <point x="1075" y="165" type="line"/>
      <point x="393" y="165" type="line"/>
      <point x="580.136" y="477.883"/>
      <point x="1073.15" y="604.496"/>
    </contour>
  </outline>
</glyph>
<glyph name="six" format="1">
  <advance width="1237"/>
  <unicode hex="0036"/>
  <outline>
    <contour>
      <point x="345" y="844" type="curve"/>
      <point x="358.088" y="1199.38"/>
      <point x="491.316" y="1325.03"/>
      <point x="679.67" y="1325.03" type="curve" smooth="yes"/>
      <point x="762.622" y="1325.03"/>
      <point x="858.847" y="1298.89"/>
      <point x="957" y="1240" type="curve"/>
      <point x="1013" y="1396" type="line"/>
      <point x="901" y="1460"/>
      <point x="761" y="1489"/>
      <point x="663" y="1489" type="curve" smooth="yes"/>
      <point x="337" y="1489"/>
      <point x="120" y="1198"/>
      <point x="120" y="697" type="curve" smooth="yes"/>
      <point x="120" y="249"/>
      <point x="314" y="-24"/>
      <point x="651" y="-24" type="curve" smooth="yes"/>
      <point x="951" y="-24"/>
      <point x="1124" y="220"/>
      <point x="1124" y="478" type="curve" smooth="yes"/>
      <point x="1124" y="781.194"/>
      <point x="927.349" y="948.018"/>
      <point x="677.47" y="948.018" type="curve" smooth="yes"/>
      <point x="561.525" y="948.018"/>
      <point x="448.099" y="919.808"/>
    </contour>
    <contour>
      <point x="345" y="677" type="line"/>
      <point x="445.874" y="754.439"/>
      <point x="543.375" y="790.034"/>
      <point x="653.077" y="790.034" type="curve" smooth="yes"/>
      <point x="828.914" y="790.034"/>
      <point x="912" y="703.373"/>
      <point x="912" y="474" type="curve" smooth="yes"/>
      <point x="912" y="257"/>
      <point x="811" y="141"/>
      <point x="651" y="141" type="curve" smooth="yes"/>
      <point x="419" y="141"/>
      <point x="345" y="388"/>
      <point x="345" y="643" type="curve" smooth="yes"/>
    </contour>
  </outline>
</glyph>
<glyph name="nine" format="1">
  <advance width="1237"/>
  <unicode hex="0039"/>
  <outline>
    <contour>
      <point x="552.363" y="517.96" type="curve" smooth="yes"/>
      <point x="669.913" y="517.96"/>
      <point x="783.099" y="544.616"/>
      <point x="888" y="621" type="curve"/>
      <point x="874" y="268"/>
      <point x="741" y="141"/>
      <point x="557" y="140" type="curve" smooth="yes"/>
      <point x="473" y="140"/>
      <point x="375" y="166"/>
      <point x="275" y="225" type="curve"/>
      <point x="219" y="69" type="line"/>
      <point x="331" y="5"/>
      <point x="471" y="-24"/>
      <point x="569" y="-24" type="curve" smooth="yes"/>
      <point x="895" y="-24"/>
      <point x="1112" y="267"/>
      <point x="1112" y="768" type="curve" smooth="yes"/>
      <point x="1112" y="1216"/>
      <point x="918" y="1489"/>
      <point x="581" y="1489" type="curve" smooth="yes"/>
      <point x="282" y="1489"/>
      <point x="109" y="1245"/>
      <point x="109" y="987" type="curve" smooth="yes"/>
      <point x="109" y="684.693"/>
      <point x="304.501" y="517.96"/>
    </contour>
    <contour>
      <point x="888" y="788" type="line"/>
      <point x="787.281" y="712.461"/>
      <point x="690.129" y="674.991"/>
      <point x="582.876" y="674.991" type="curve" smooth="yes"/>
      <point x="405.005" y="674.991"/>
      <point x="320" y="760.346"/>
      <point x="320" y="991" type="curve" smooth="yes"/>
      <point x="320" y="1208"/>
      <point x="421" y="1324"/>
      <point x="581" y="1324" type="curve" smooth="yes"/>
      <point x="814" y="1324"/>
      <point x="888" y="1077"/>
      <point x="888" y="822" type="curve" smooth="yes"/>
    </contour>
  </outline>
</glyph>
<glyph name="less" format="1">
  <advance width="1051"/>
  <unicode hex="003C"/>
  <outline>
    <contour>
      <point x="998" y="78" type="line"/>
      <point x="998" y="272" type="line"/>
      <point x="273" y="524" type="line"/>
      <point x="998" y="763" type="line"/>
      <point x="998" y="976" type="line"/>
      <point x="49" y="625" type="line"/>
      <point x="49" y="444" type="line"/>
    </contour>
  </outline>
</glyph>
<glyph name="equal" format="1">
  <advance width="820"/>
  <unicode hex="003D"/>
  <outline>
    <contour>
      <point x="135" y="275" type="line"/>
      <point x="685" y="275" type="line"/>
      <point x="685" y="413" type="line"/>
      <point x="135" y="413" type="line"/>
    </contour>
    <contour>
      <point x="135" y="524" type="line"/>
      <point x="685" y="524" type="line"/>
      <point x="685" y="662" type="line"/>
      <point x="135" y="662" type="line"/>
    </contour>
  </outline>
</glyph>
<glyph name="at" format="1">
  <advance width="1704"/>
  <unicode hex="0040"/>
  <outline>
    <contour>
      <point x="1078" y="297" type="curve"/>
      <point x="1102.5" y="176.55"/>
      <point x="1203.23" y="146.933"/>
      <point x="1264.17" y="146.933" type="curve" smooth="yes"/>
      <point x="1444.89" y="146.933"/>
      <point x="1615" y="320.61"/>
      <point x="1615" y="638" type="curve" smooth="yes"/>
      <point x="1615" y="1038"/>
      <point x="1273" y="1298"/>
      <point x="883" y="1298" type="curve" smooth="yes"/>
      <point x="385" y="1298"/>
      <point x="90" y="905"/>
      <point x="90" y="518" type="curve" smooth="yes"/>
      <point x="90" y="143"/>
      <point x="324" y="-181"/>
      <point x="842" y="-181" type="curve" smooth="yes"/>
      <point x="1006" y="-181"/>
      <point x="1153" y="-140"/>
      <point x="1288" y="-64" type="curve"/>
      <point x="1226" y="52" type="line"/>
      <point x="1149" y="11"/>
      <point x="1005" y="-39"/>
      <point x="847" y="-39" type="curve" smooth="yes"/>
      <point x="437" y="-39"/>
      <point x="267" y="211"/>
      <point x="267" y="509" type="curve" smooth="yes"/>
      <point x="267" y="805"/>
      <point x="504" y="1150"/>
      <point x="886" y="1150" type="curve" smooth="yes"/>
      <point x="1187" y="1150"/>
      <point x="1449" y="982"/>
      <point x="1449" y="650" type="curve" smooth="yes"/>
      <point x="1449" y="372.379"/>
      <point x="1373.75" y="271.993"/>
      <point x="1277.44" y="271.993" type="curve" smooth="yes"/>
      <point x="1224.52" y="271.993"/>
      <point x="1186.47" y="300.997"/>
      <point x="1186.47" y="355.241" type="curve" smooth="yes"/>
      <point x="1186.47" y="361.484"/>
      <point x="1186.97" y="368.071"/>
      <point x="1188" y="375" type="curve" smooth="yes"/>
      <point x="1278" y="959" type="line"/>
      <point x="1142" y="959" type="line"/>
      <point x="1113" y="886" type="line"/>
      <point x="1046" y="944"/>
      <point x="953" y="982"/>
      <point x="868" y="982" type="curve" smooth="yes"/>
      <point x="616" y="982"/>
      <point x="429" y="721"/>
      <point x="429" y="467" type="curve" smooth="yes"/>
      <point x="429" y="282.254"/>
      <point x="552.566" y="108.786"/>
      <point x="775.191" y="108.786" type="curve" smooth="yes"/>
      <point x="901.454" y="108.786"/>
      <point x="1026.52" y="190.156"/>
    </contour>
    <contour>
      <point x="782" y="243" type="curve" smooth="yes"/>
      <point x="676" y="243"/>
      <point x="605" y="336"/>
      <point x="605" y="464" type="curve" smooth="yes"/>
      <point x="605" y="697"/>
      <point x="725" y="850"/>
      <point x="880" y="850" type="curve" smooth="yes"/>
      <point x="951" y="850"/>
      <point x="1022" y="823"/>
      <point x="1083" y="774" type="curve"/>
      <point x="1047" y="546" type="line" smooth="yes"/>
      <point x="1007" y="293"/>
      <point x="872" y="243"/>
    </contour>
  </outline>
</glyph>
<glyph name="A" format="1">
  <advance width="1286"/>
  <unicode hex="0041"/>
  <outline>
    <contour>
      <point x="28" y="0" type="line"/>
      <point x="233" y="0" type="line"/>
      <point x="352" y="383" type="line"/>
      <point x="918" y="383" type="line"/>
      <point x="1043" y="0" type="line"/>
      <point x="1257" y="0" type="line"/>
      <point x="788" y="1464" type="line"/>
      <point x="490" y="1464" type="line"/>
    </contour>
    <contour>
      <point x="397" y="534" type="line"/>
      <point x="635" y="1330" type="line"/>
      <point x="871" y="534" type="line"/>
    </contour>
    <contour>
      <point x="1143" y="0" type="move" name="ogonek"/>
    </contour>
    <contour>
      <point x="643" y="0" type="move" name="bot"/>
    </contour>
    <contour>
      <point x="643" y="1464" type="move" name="top"/>
    </contour>
  </outline>
</glyph>
<glyph name="B" format="1">
  <advance width="1325"/>
  <unicode hex="0042"/>
  <outline>
    <contour>
      <point x="139" y="0" type="line"/>
      <point x="558" y="0" type="line" smooth="yes"/>
      <point x="1016" y="0"/>
      <point x="1244" y="85"/>
      <point x="1244" y="413" type="curve" smooth="yes"/>
      <point x="1244" y="609"/>
      <point x="1176" y="749"/>
      <point x="958" y="779" type="curve"/>
      <point x="1160.71" y="811.112"/>
      <point x="1197" y="943.528"/>
      <point x="1197" y="1106.54" type="curve" smooth="yes"/>
      <point x="1197" y="1417.16"/>
      <point x="895.501" y="1464"/>
      <point x="594" y="1464" type="curve" smooth="yes"/>
      <point x="139" y="1464" type="line"/>
    </contour>
    <contour>
      <point x="344" y="154" type="line"/>
      <point x="344" y="704" type="line"/>
      <point x="625" y="704" type="line" smooth="yes"/>
      <point x="901" y="704"/>
      <point x="1040" y="674"/>
      <point x="1040" y="418" type="curve" smooth="yes"/>
      <point x="1040" y="160"/>
      <point x="812" y="154"/>
      <point x="591" y="154" type="curve" smooth="yes"/>
    </contour>
    <contour>
      <point x="344" y="853" type="line"/>
      <point x="344" y="1310" type="line"/>
      <point x="601" y="1310" type="line"/>
      <point x="614.666" y="1310" type="line" smooth="yes"/>
      <point x="842.07" y="1310"/>
      <point x="993.176" y="1308.08"/>
      <point x="1002" y="1111" type="curve" smooth="yes"/>
      <point x="1002.54" y="1099.25"/>
      <point x="1002.82" y="1088.03"/>
      <point x="1002.82" y="1077.29" type="curve" smooth="yes"/>
      <point x="1002.82" y="888.806"/>
      <point x="916.351" y="853"/>
      <point x="624" y="853" type="curve" smooth="yes"/>
    </contour>
    <contour>
      <point x="662.5" y="1464" type="move" name="top"/>
    </contour>
  </outline>
</glyph>
<glyph name="E" format="1">
  <advance width="1225"/>
  <unicode hex="0045"/>
  <outline>
    <contour>
      <point x="139" y="0" type="line"/>
      <point x="1154" y="0" type="line"/>
      <point x="1154" y="154" type="line"/>
      <point x="344" y="154" type="line"/>
      <point x="344" y="700" type="line"/>
      <point x="1040" y="700" type="line"/>
      <point x="1040" y="857" type="line"/>
      <point x="344" y="857" type="line"/>
      <point x="344" y="1310" type="line"/>
      <point x="1143" y="1310" type="line"/>
      <point x="1143" y="1464" type="line"/>
      <point x="139" y="1464" type="line"/>
    </contour>
    <contour>
      <point x="612.5" y="0" type="move" name="bot"/>
    </contour>
    <contour>
      <point x="724" y="0" type="move" name="ogonek"/>
    </contour>
    <contour>
      <point x="651" y="1464" type="move" name="top"/>
    </contour>
  </outline>
</glyph>
<glyph name="F" format="1">
  <advance width="1201"/>
  <unicode hex="0046"/>
  <outline>
    <contour>
      <point x="139" y="0" type="line"/>
      <point x="344" y="0" type="line"/>
      <point x="344" y="689" type="line"/>
      <point x="1043" y="689" type="line"/>
      <point x="1043" y="846" type="line"/>
      <point x="344" y="846" type="line"/>
      <point x="344" y="1310" type="line"/>
      <point x="1154" y="1310" type="line"/>
      <point x="1154" y="1464" type="line"/>
      <point x="139" y="1464" type="line"/>
    </contour>
    <contour>
      <point x="600.5" y="0" type="move" name="bot"/>
    </contour>
    <contour>
      <point x="673" y="1464" type="move" name="top"/>
    </contour>
  </outline>
</glyph>
<glyph name="G" format="1">
  <advance width="1421"/>
  <unicode hex="0047"/>
  <outline>
    <contour>
      <point x="742" y="-24" type="curve" smooth="yes"/>
      <point x="926" y="-24"/>
      <point x="1051" y="48"/>
      <point x="1113" y="147" type="curve"/>
      <point x="1154" y="0" type="line"/>
      <point x="1287" y="0" type="line"/>
      <point x="1287" y="0"/>
      <point x="1297" y="428"/>
      <point x="1297" y="581" type="curve" smooth="yes"/>
      <point x="1297" y="817" type="line"/>
      <point x="775" y="817" type="line"/>
      <point x="775" y="642" type="line"/>
      <point x="1095" y="642" type="line"/>
      <point x="1095" y="450" type="line" smooth="yes"/>
      <point x="1095" y="237"/>
      <point x="926" y="139"/>
      <point x="760" y="139" type="curve" smooth="yes"/>
      <point x="469" y="139"/>
      <point x="331" y="317"/>
      <point x="331" y="721" type="curve" smooth="yes"/>
      <point x="331" y="1149"/>
      <point x="441" y="1325"/>
      <point x="750" y="1325" type="curve" smooth="yes"/>
      <point x="936" y="1325"/>
      <point x="1052" y="1237"/>
      <point x="1120" y="1053" type="curve"/>
      <point x="1298" y="1113" type="line"/>
      <point x="1216" y="1352"/>
      <point x="1047" y="1489"/>
      <point x="755" y="1489" type="curve" smooth="yes"/>
      <point x="361" y="1489"/>
      <point x="115" y="1285"/>
      <point x="115" y="722" type="curve" smooth="yes"/>
      <point x="115" y="165"/>
      <point x="391" y="-24"/>
    </contour>
    <contour>
      <point x="710.5" y="0" type="move" name="bot"/>
    </contour>
    <contour>
      <point x="745" y="1464" type="move" name="top"/>
    </contour>
  </outline>
</glyph>
<glyph name="H" format="1">
  <advance width="1500"/>
  <unicode hex="0048"/>
  <outline>
    <contour>
      <point x="139" y="0" type="line"/>
      <point x="344" y="0" type="line"/>
      <point x="344" y="679" type="line"/>
      <point x="1155" y="679" type="line"/>
      <point x="1155" y="0" type="line"/>
      <point x="1360" y="0" type="line"/>
      <point x="1360" y="1464" type="line"/>
      <point x="1155" y="1464" type="line"/>
      <point x="1155" y="842" type="line"/>
      <point x="344" y="842" type="line"/>
      <point x="344" y="1464" type="line"/>
      <point x="139" y="1464" type="line"/>
    </contour>
    <contour>
      <point x="750" y="0" type="move" name="bot"/>
    </contour>
    <contour>
      <point x="750" y="1464" type="move" name="top"/>
    </contour>
  </outline>
</glyph>
<glyph name="I" format="1">
  <advance width="464"/>
  <unicode hex="0049"/>
  <outline>
    <contour>
      <point x="133" y="0" type="line"/>
      <point x="338" y="0" type="line"/>
      <point x="338" y="1464" type="line"/>
      <point x="133" y="1464" type="line"/>
    </contour>
    <contour>
      <point x="232" y="0" type="move" name="bot"/>
    </contour>
    <contour>
      <point x="231" y="0" type="move" name="ogonek"/>
    </contour>
    <contour>
      <point x="232" y="1464" type="move" name="top"/>
    </contour>
  </outline>
</glyph>
<glyph name="K" format="1">
  <advance width="1291"/>
  <unicode hex="004B"/>
  <outline>
    <contour>
      <point x="139" y="0" type="line"/>
      <point x="344" y="0" type="line"/>
      <point x="344" y="540" type="line"/>
      <point x="572" y="776" type="line"/>
      <point x="1063" y="0" type="line"/>
      <point x="1296" y="0" type="line"/>
      <point x="712" y="920" type="line"/>
      <point x="1240" y="1464" type="line"/>
      <point x="993" y="1464" type="line"/>
      <point x="344" y="783" type="line"/>
      <point x="344" y="1464" type="line"/>
      <point x="139" y="1464" type="line"/>
    </contour>
    <contour>
      <point x="645.5" y="0" type="move" name="bot"/>
    </contour>
    <contour>
      <point x="645.5" y="1464" type="move" name="top"/>
    </contour>
  </outline>
</glyph>
<glyph name="L" format="1">
  <advance width="1066"/>
  <unicode hex="004C"/>
  <outline>
    <contour>
      <point x="139" y="0" type="line"/>
      <point x="1075" y="0" type="line"/>
      <point x="1075" y="154" type="line"/>
      <point x="344" y="154" type="line"/>
      <point x="344" y="1464" type="line"/>
      <point x="139" y="1464" type="line"/>
    </contour>
    <contour>
      <point x="520" y="1023" type="move" name="caron.alt"/>
    </contour>
    <contour>
      <point x="244" y="745" type="move" name="mid"/>
    </contour>
    <contour>
      <point x="533" y="1464" type="move" name="top"/>
    </contour>
    <contour>
      <point x="533" y="0" type="move" name="bot"/>
    </contour>
  </outline>
</glyph>
<glyph name="N" format="1">
  <advance width="1497"/>
  <unicode hex="004E"/>
  <outline>
    <contour>
      <point x="748.5" y="1464" type="move" name="top"/>
    </contour>
    <contour>
      <point x="139" y="0" type="line"/>
      <point x="323" y="0" type="line"/>
      <point x="323" y="1221" type="line"/>
      <point x="1178" y="0" type="line"/>
      <point x="1357" y="0" type="line"/>
      <point x="1357" y="1464" type="line"/>
      <point x="1180" y="1464" type="line"/>
      <point x="1180" y="312" type="line"/>
      <point x="365" y="1464" type="line"/>
      <point x="139" y="1464" type="line"/>
    </contour>
  </outline>
</glyph>
<glyph name="Q" format="1">
  <advance width="1529"/>
  <unicode hex="0051"/>
  <outline>
    <contour>
      <point x="1285" y="-360" type="line"/>
      <point x="1437" y="-247" type="line"/>
      <point x="1175" y="101" type="line"/>
      <point x="1319" y="218"/>
      <point x="1400" y="422"/>
      <point x="1400" y="741" type="curve" smooth="yes"/>
      <point x="1400" y="1289"/>
      <point x="1144" y="1488"/>
      <point x="756" y="1488" type="curve" smooth="yes"/>
      <point x="369" y="1488"/>
      <point x="115" y="1290"/>
      <point x="115" y="740" type="curve" smooth="yes"/>
      <point x="115" y="178"/>
      <point x="364" y="-24"/>
      <point x="755" y="-24" type="curve" smooth="yes"/>
      <point x="856" y="-24"/>
      <point x="947" y="-10"/>
      <point x="1027" y="18" type="curve"/>
    </contour>
    <contour>
      <point x="756" y="138" type="curve" smooth="yes"/>
      <point x="436" y="138"/>
      <point x="331" y="332"/>
      <point x="331" y="740" type="curve" smooth="yes"/>
      <point x="331" y="1101"/>
      <point x="421" y="1325"/>
      <point x="756" y="1325" type="curve" smooth="yes"/>
      <point x="1091" y="1325"/>
      <point x="1183" y="1102"/>
      <point x="1183" y="739" type="curve" smooth="yes"/>
      <point x="1183" y="327"/>
      <point x="1081" y="138"/>
    </contour>
  </outline>
</glyph>
<glyph name="W" format="1">
  <advance width="1858"/>
  <unicode hex="0057"/>
  <outline>
    <contour>
      <point x="421" y="0" type="line"/>
      <point x="578" y="0" type="line"/>
      <point x="933" y="1070" type="line"/>
      <point x="1241" y="0" type="line"/>
      <point x="1417" y="0" type="line"/>
      <point x="1854" y="1464" type="line"/>
      <point x="1659" y="1464" type="line"/>
      <point x="1342" y="303" type="line"/>
      <point x="1019" y="1464" type="line"/>
      <point x="875" y="1464" type="line"/>
      <point x="508" y="328" type="line"/>
      <point x="218" y="1464" type="line"/>
      <point x="4" y="1464" type="line"/>
    </contour>
    <contour>
      <point x="929" y="0" type="move" name="bot"/>
    </contour>
    <contour>
      <point x="949" y="1464" type="move" name="top"/>
    </contour>
  </outline>
</glyph>
<glyph name="Z" format="1">
  <advance width="1176"/>
  <unicode hex="005A"/>
  <outline>
    <contour>
      <point x="43" y="0" type="line"/>
      <point x="1134" y="0" type="line"/>
      <point x="1141" y="154" type="line"/>
      <point x="304" y="154" type="line"/>
      <point x="1135" y="1334" type="line"/>
      <point x="1135" y="1464" type="line"/>
      <point x="126" y="1464" type="line"/>
      <point x="126" y="1309" type="line"/>
      <point x="872" y="1309" type="line"/>
      <point x="43" y="138" type="line"/>
    </contour>
    <contour>
      <point x="588" y="0" type="move" name="bot"/>
    </contour>
    <contour>
      <point x="618" y="1464" type="move" name="top"/>
    </contour>
  </outline>
</glyph>
<glyph name="backslash" format="1">
  <advance width="632"/>
  <unicode hex="005C"/>
  <outline>
    <contour>
      <point x="435" y="-5" type="line"/>
      <point x="638" y="-5" type="line"/>
      <point x="241" y="1464" type="line"/>
      <point x="38" y="1464" type="line"/>
    </contour>
  </outline>
</glyph>
<glyph name="asciicircum" format="1">
  <advance width="1053"/>
  <unicode hex="005E"/>
  <outline>
    <contour>
      <point x="79" y="100" type="line"/>
      <point x="272" y="100" type="line"/>
      <point x="521" y="776" type="line"/>
      <point x="766" y="100" type="line"/>
      <point x="980" y="100" type="line"/>
      <point x="619" y="999" type="line"/>
      <point x="441" y="999" type="line"/>
    </contour>
  </outline>
</glyph>
<glyph name="c" format="1">
  <advance width="1012"/>
  <unicode hex="0063"/>
  <outline>
    <contour>
      <point x="536" y="1023" type="move" name="top"/>
    </contour>
    <contour>
      <point x="540" y="-24" type="curve" smooth="yes"/>
      <point x="732" y="-24"/>
      <point x="894" y="48"/>
      <point x="949" y="294" type="curve"/>
      <point x="792" y="341" type="line"/>
      <point x="754" y="185"/>
      <point x="675" y="117"/>
      <point x="547" y="117" type="curve" smooth="yes"/>
      <point x="385" y="117"/>
      <point x="294" y="250"/>
      <point x="294" y="514" type="curve" smooth="yes"/>
      <point x="294" y="769"/>
      <point x="382" y="905"/>
      <point x="547" y="905" type="curve" smooth="yes"/>
      <point x="673" y="905"/>
      <point x="749" y="839"/>
      <point x="788" y="686" type="curve"/>
      <point x="951" y="727" type="line"/>
      <point x="895" y="971"/>
      <point x="730" y="1046"/>
      <point x="541" y="1046" type="curve" smooth="yes"/>
      <point x="245" y="1046"/>
      <point x="91" y="819"/>
      <point x="91" y="511" type="curve" smooth="yes"/>
      <point x="91" y="202"/>
      <point x="245" y="-24"/>
    </contour>
  </outline>
</glyph>
<glyph name="d" format="1">
  <advance width="1137"/>
  <unicode hex="0064"/>
  <outline>
    <contour>
      <point x="530" y="-24" type="curve" smooth="yes"/>
      <point x="680" y="-24"/>
      <point x="787" y="41"/>
      <point x="851" y="149" type="curve"/>
      <point x="860" y="3" type="line"/>
      <point x="1012" y="3" type="line"/>
      <point x="1012" y="1477" type="line"/>
      <point x="814" y="1477" type="line"/>
      <point x="814" y="908" type="line"/>
      <point x="752" y="992"/>
      <point x="659" y="1046"/>
      <point x="533" y="1046" type="curve" smooth="yes"/>
      <point x="274" y="1046"/>
      <point x="91" y="870"/>
      <point x="91" y="519" type="curve" smooth="yes"/>
      <point x="91" y="175"/>
      <point x="251" y="-24"/>
    </contour>
    <contour>
      <point x="560.583" y="115.576" type="curve" smooth="yes"/>
      <point x="368.726" y="115.576"/>
      <point x="293" y="247.505"/>
      <point x="293" y="521" type="curve" smooth="yes"/>
      <point x="293" y="775.156"/>
      <point x="372.963" y="906.135"/>
      <point x="549.521" y="906.135" type="curve" smooth="yes"/>
      <point x="688.277" y="906.135"/>
      <point x="824" y="819.205"/>
      <point x="824" y="522" type="curve" smooth="yes"/>
      <point x="824" y="281.021"/>
      <point x="757.907" y="115.576"/>
    </contour>
    <contour>
      <point x="568.5" y="1023" type="move" name="mid"/>
    </contour>
    <contour>
      <point x="940" y="1023" type="move" name="caron.alt"/>
    </contour>
    <contour>
      <point x="568.5" y="1023" type="move" name="top"/>
    </contour>
  </outline>
</glyph>
<glyph name="g" format="1">
  <advance width="1145"/>
  <unicode hex="0067"/>
  <outline>
    <contour>
      <point x="830" y="30" type="line" smooth="yes"/>
      <point x="830" y="-190.536"/>
      <point x="764.327" y="-318.049"/>
      <point x="553.393" y="-318.049" type="curve" smooth="yes"/>
      <point x="403.171" y="-318.049"/>
      <point x="318.945" y="-259.665"/>
      <point x="256" y="-180" type="curve"/>
      <point x="149" y="-290" type="line"/>
      <point x="225" y="-385"/>
      <point x="373" y="-467"/>
      <point x="558" y="-467" type="curve" smooth="yes"/>
      <point x="842" y="-466"/>
      <point x="1028" y="-314"/>
      <point x="1028" y="27" type="curve" smooth="yes"/>
      <point x="1028" y="1023" type="line"/>
      <point x="859" y="1023" type="line"/>
      <point x="840" y="877" type="line"/>
      <point x="777" y="978"/>
      <point x="675" y="1046"/>
      <point x="535" y="1046" type="curve" smooth="yes"/>
      <point x="276" y="1046"/>
      <point x="87" y="863"/>
      <point x="87" y="517" type="curve" smooth="yes"/>
      <point x="87" y="181"/>
      <point x="258" y="-24"/>
      <point x="537" y="-24" type="curve" smooth="yes"/>
      <point x="667" y="-24"/>
      <point x="765" y="24"/>
      <point x="830" y="107" type="curve"/>
    </contour>
    <contour>
      <point x="548" y="116" type="curve" smooth="yes"/>
      <point x="375.045" y="116"/>
      <point x="287.992" y="253.213"/>
      <point x="287.992" y="522.745" type="curve" smooth="yes"/>
      <point x="287.992" y="765.446"/>
      <point x="384.832" y="906"/>
      <point x="547" y="906" type="curve" smooth="yes"/>
      <point x="694" y="906"/>
      <point x="831" y="841"/>
      <point x="831" y="490" type="curve" smooth="yes"/>
      <point x="831" y="248"/>
      <point x="768" y="116"/>
    </contour>
    <contour>
      <point x="572.5" y="0" type="move" name="bot"/>
    </contour>
    <contour>
      <point x="572.5" y="1023" type="move" name="top"/>
    </contour>
  </outline>
</glyph>
<glyph name="i" format="1">
  <advance width="447"/>
  <unicode hex="0069"/>
  <outline>
    <component base="dotlessi"/>
    <component base="dotaccent" xOffset="14"/>
    <contour>
      <point x="244" y="0" type="move" name="ogonek"/>
    </contour>
  </outline>
</glyph>
<glyph name="k" format="1">
  <advance width="1052"/>
  <unicode hex="006B"/>
  <outline>
    <contour>
      <point x="125" y="0" type="line"/>
      <point x="324" y="0" type="line"/>
      <point x="324" y="340" type="line"/>
      <point x="504" y="514" type="line"/>
      <point x="838" y="0" type="line"/>
      <point x="1062" y="0" type="line"/>
      <point x="634" y="638" type="line"/>
      <point x="1035" y="1023" type="line"/>
      <point x="811" y="1023" type="line"/>
      <point x="324" y="550" type="line"/>
      <point x="324" y="1474" type="line"/>
      <point x="125" y="1474" type="line"/>
    </contour>
    <contour>
      <point x="526" y="0" type="move" name="bot"/>
    </contour>
    <contour>
      <point x="631" y="1296" type="move" name="top"/>
    </contour>
  </outline>
</glyph>
<glyph name="n" format="1">
  <advance width="1126"/>
  <unicode hex="006E"/>
  <outline>
    <contour>
      <point x="125" y="0" type="line"/>
      <point x="323" y="0" type="line"/>
      <point x="323" y="506" type="line"/>
      <point x="325" y="704"/>
      <point x="391" y="906"/>
      <point x="613" y="906" type="curve" smooth="yes"/>
      <point x="767" y="906"/>
      <point x="812" y="800"/>
      <point x="812" y="599" type="curve" smooth="yes"/>
      <point x="812" y="0" type="line"/>
      <point x="1010" y="0" type="line"/>
      <point x="1010" y="593" type="line" smooth="yes"/>
      <point x="1010" y="798"/>
      <point x="973" y="1046"/>
      <point x="650" y="1046" type="curve" smooth="yes"/>
      <point x="499" y="1046"/>
      <point x="392" y="989"/>
      <point x="323" y="884" type="curve"/>
      <point x="323" y="1023" type="line"/>
      <point x="125" y="1023" type="line"/>
    </contour>
    <contour>
      <point x="563" y="0" type="move" name="bot"/>
    </contour>
    <contour>
      <point x="628" y="1023" type="move" name="top"/>
    </contour>
  </outline>
</glyph>
<glyph name="o" format="1">
  <advance width="1099"/>
  <unicode hex="006F"/>
  <outline>
    <contour>
      <point x="550" y="116" type="curve" smooth="yes"/>
      <point x="338" y="116"/>
      <point x="293" y="317"/>
      <point x="293" y="512" type="curve" smooth="yes"/>
      <point x="293" y="706"/>
      <point x="338" y="906"/>
      <point x="550" y="906" type="curve" smooth="yes"/>
      <point x="761" y="906"/>
      <point x="806" y="706"/>
      <point x="806" y="512" type="curve" smooth="yes"/>
      <point x="806" y="317"/>
      <point x="761" y="116"/>
    </contour>
    <contour>
      <point x="550" y="-24" type="curve" smooth="yes"/>
      <point x="831" y="-24"/>
      <point x="1009" y="158"/>
      <point x="1009" y="512" type="curve" smooth="yes"/>
      <point x="1009" y="865"/>
      <point x="831" y="1046"/>
      <point x="550" y="1046" type="curve" smooth="yes"/>
      <point x="268" y="1046"/>
      <point x="90" y="865"/>
      <point x="90" y="512" type="curve" smooth="yes"/>
      <point x="90" y="158"/>
      <point x="268" y="-24"/>
    </contour>
    <contour>
      <point x="549.5" y="0" type="move" name="bot"/>
    </contour>
    <contour>
      <point x="549.5" y="1023" type="move" name="top"/>
    </contour>
    <contour>
      <point x="596" y="0" type="move" name="ogonek"/>
    </contour>
  </outline>
</glyph>
<glyph name="p" format="1">
  <advance width="1145"/>
  <unicode hex="0070"/>
  <outline>
    <contour>
      <point x="125" y="-366" type="line"/>
      <point x="323" y="-366" type="line"/>
      <point x="323" y="107" type="line"/>
      <point x="388" y="24"/>
      <point x="487" y="-24"/>
      <point x="618" y="-24" type="curve" smooth="yes"/>
      <point x="897" y="-24"/>
      <point x="1054" y="173"/>
      <point x="1054" y="517" type="curve" smooth="yes"/>
      <point x="1054" y="866"/>
      <point x="876" y="1046"/>
      <point x="617" y="1046" type="curve" smooth="yes"/>
      <point x="477" y="1046"/>
      <point x="375" y="977"/>
      <point x="312" y="876" type="curve"/>
      <point x="298" y="1023" type="line"/>
      <point x="125" y="1023" type="line"/>
    </contour>
    <contour>
      <point x="605" y="116" type="curve" smooth="yes"/>
      <point x="376" y="116"/>
      <point x="323" y="257"/>
      <point x="323" y="526" type="curve" smooth="yes"/>
      <point x="324" y="831"/>
      <point x="465" y="906"/>
      <point x="605" y="906" type="curve" smooth="yes"/>
      <point x="772" y="906"/>
      <point x="852" y="767"/>
      <point x="852" y="517" type="curve" smooth="yes"/>
      <point x="852" y="249"/>
      <point x="777" y="116"/>
    </contour>
    <contour>
      <point x="613" y="0" type="move" name="bot"/>
    </contour>
    <contour>
      <point x="613" y="1023" type="move" name="top"/>
    </contour>
  </outline>
</glyph>
<glyph name="u" format="1">
  <advance width="1126"/>
  <unicode hex="0075"/>
  <outline>
    <contour>
      <point x="905" y="0" type="move" name="ogonek"/>
    </contour>
    <contour>
      <point x="563" y="1023" type="move" name="top"/>
    </contour>
    <contour>
      <point x="478" y="-24" type="curve" smooth="yes"/>
      <point x="630" y="-24"/>
      <point x="734" y="34"/>
      <point x="803" y="137" type="curve"/>
      <point x="803" y="0" type="line"/>
      <point x="1001" y="0" type="line"/>
      <point x="1001" y="1023" type="line"/>
      <point x="803" y="1023" type="line"/>
      <point x="803" y="529" type="line" smooth="yes"/>
      <point x="803" y="317"/>
      <point x="739" y="116"/>
      <point x="516" y="116" type="curve" smooth="yes"/>
      <point x="361" y="116"/>
      <point x="314" y="218"/>
      <point x="314" y="422" type="curve" smooth="yes"/>
      <point x="314" y="1023" type="line"/>
      <point x="116" y="1023" type="line"/>
      <point x="116" y="435" type="line" smooth="yes"/>
      <point x="116" y="227"/>
      <point x="151" y="-24"/>
    </contour>
  </outline>
</glyph>
<glyph name="v" format="1">
  <advance width="958"/>
  <unicode hex="0076"/>
  <outline>
    <contour>
      <point x="386" y="0" type="line"/>
      <point x="554" y="0" type="line"/>
      <point x="943" y="1023" type="line"/>
      <point x="753" y="1023" type="line"/>
      <point x="481" y="252" type="line"/>
      <point x="213" y="1023" type="line"/>
      <point x="14" y="1023" type="line"/>
    </contour>
  </outline>
</glyph>
<glyph name="w" format="1">
  <advance width="1497"/>
  <unicode hex="0077"/>
  <outline>
    <contour>
      <point x="748.5" y="1023" type="move" name="top"/>
    </contour>
    <contour>
      <point x="338" y="0" type="line"/>
      <point x="506" y="0" type="line"/>
      <point x="745" y="684" type="line"/>
      <point x="972" y="0" type="line"/>
      <point x="1139" y="0" type="line"/>
      <point x="1495" y="1023" type="line"/>
      <point x="1300" y="1023" type="line"/>
      <point x="1066" y="252" type="line"/>
      <point x="807" y="1023" type="line"/>
      <point x="700" y="1023" type="line"/>
      <point x="433" y="252" type="line"/>
      <point x="206" y="1023" type="line"/>
      <point x="0" y="1023" type="line"/>
    </contour>
  </outline>
</glyph>
<glyph name="y" format="1">
  <advance width="987"/>
  <unicode hex="0079"/>
  <outline>
    <contour>
      <point x="493.5" y="1023" type="move" name="top"/>
    </contour>
    <contour>
      <point x="58" y="-303" type="line"/>
      <point x="95.7765" y="-313.21"/>
      <point x="134.225" y="-318.006"/>
      <point x="168.651" y="-318.006" type="curve" smooth="yes"/>
      <point x="384.78" y="-318.006"/>
      <point x="480.439" y="-195.899"/>
      <point x="588" y="74" type="curve" smooth="yes"/>
      <point x="965" y="1023" type="line"/>
      <point x="769" y="1023" type="line"/>
      <point x="502" y="325" type="line"/>
      <point x="231" y="1023" type="line"/>
      <point x="27" y="1023" type="line"/>
      <point x="400" y="121" type="line"/>
      <point x="386" y="76" type="line"/>
      <point x="326" y="-109"/>
      <point x="263" y="-148"/>
      <point x="148" y="-148" type="curve" smooth="yes"/>
      <point x="128" y="-148"/>
      <point x="106" y="-145"/>
      <point x="81" y="-141" type="curve"/>
    </contour>
  </outline>
</glyph>
<glyph name="z" format="1">
  <advance width="878"/>
  <unicode hex="007A"/>
  <outline>
    <contour>
      <point x="63" y="0" type="line"/>
      <point x="831" y="0" type="line"/>
      <point x="831" y="142" type="line"/>
      <point x="285" y="142" type="line"/>
      <point x="833" y="888" type="line"/>
      <point x="833" y="1023" type="line"/>
      <point x="86" y="1023" type="line"/>
      <point x="86" y="880" type="line"/>
      <point x="600" y="880" type="line"/>
      <point x="63" y="134" type="line"/>
    </contour>
    <contour>
      <point x="439" y="0" type="move" name="bot"/>
    </contour>
    <contour>
      <point x="439" y="1023" type="move" name="top"/>
    </contour>
  </outline>
</glyph>
<glyph name="braceright" format="1">
  <advance width="644"/>
  <unicode hex="007D"/>
  <outline>
    <contour>
      <point x="3" y="-130" type="line"/>
      <point x="396" y="-130"/>
      <point x="461" y="0"/>
      <point x="461" y="371" type="curve" smooth="yes"/>
      <point x="461" y="374.101"/>
      <point x="460.999" y="377.2"/>
      <point x="460.999" y="380.295" type="curve" smooth="yes"/>
      <point x="460.999" y="507.994"/>
      <point x="462.905" y="630.284"/>
      <point x="624" y="642" type="curve"/>
      <point x="624" y="772" type="line"/>
      <point x="462.905" y="783.716"/>
      <point x="460.999" y="906.006"/>
      <point x="460.999" y="1033.7" type="curve" smooth="yes"/>
      <point x="460.999" y="1036.8"/>
      <point x="461" y="1039.9"/>
      <point x="461" y="1043" type="curve" smooth="yes"/>
      <point x="461" y="1414"/>
      <point x="396" y="1544"/>
      <point x="3" y="1544" type="curve"/>
      <point x="3" y="1420" type="line"/>
      <point x="228" y="1420"/>
      <point x="248" y="1368"/>
      <point x="248" y="1033" type="curve" smooth="yes"/>
      <point x="248" y="851"/>
      <point x="286" y="738"/>
      <point x="415" y="707" type="curve"/>
      <point x="286" y="676"/>
      <point x="248" y="563"/>
      <point x="248" y="381" type="curve" smooth="yes"/>
      <point x="248" y="46"/>
      <point x="228" y="-6"/>
      <point x="3" y="-6" type="curve"/>
    </contour>
  </outline>
</glyph>
<glyph name="asciitilde" format="1">
  <advance width="962"/>
  <unicode hex="007E"/>
  <outline>
    <contour>
      <point x="766.975" y="674.775" type="curve" smooth="yes"/>
      <point x="888.213" y="674.775"/>
      <point x="939.623" y="769.956"/>
      <point x="949" y="970" type="curve"/>
      <point x="783" y="970" type="line"/>
      <point x="765" y="895"/>
      <point x="761" y="866"/>
      <point x="704" y="866" type="curve" smooth="yes"/>
      <point x="631.947" y="866"/>
      <point x="367.438" y="971.235"/>
      <point x="220.639" y="971.235" type="curve" smooth="yes"/>
      <point x="117.367" y="971.235"/>
      <point x="28.2758" y="924.358"/>
      <point x="13" y="683" type="curve"/>
      <point x="179" y="683" type="line"/>
      <point x="200" y="778"/>
      <point x="225" y="785"/>
      <point x="257" y="785" type="curve" smooth="yes"/>
      <point x="351.555" y="785"/>
      <point x="584.841" y="674.775"/>
    </contour>
  </outline>
</glyph>
<glyph name="sterling" format="1">
  <advance width="1168"/>
  <unicode hex="00A3"/>
  <outline>
    <contour>
      <point x="219" y="-26" type="line"/>
      <point x="429" y="19"/>
      <point x="558" y="42"/>
      <point x="679" y="42" type="curve" smooth="yes"/>
      <point x="809" y="42"/>
      <point x="879" y="21"/>
      <point x="979" y="0" type="curve"/>
      <point x="1017" y="164" type="line"/>
      <point x="933" y="187"/>
      <point x="844" y="218"/>
      <point x="740" y="218" type="curve" smooth="yes"/>
      <point x="616" y="218"/>
      <point x="527" y="203"/>
      <point x="344" y="136" type="curve"/>
      <point x="384.632" y="216.273"/>
      <point x="439.013" y="315.206"/>
      <point x="439.013" y="495.091" type="curve" smooth="yes"/>
      <point x="439.013" y="552.447"/>
      <point x="430.204" y="605.556"/>
      <point x="424" y="680" type="curve"/>
      <point x="773" y="680" type="line"/>
      <point x="773" y="823" type="line"/>
      <point x="416" y="823" type="line"/>
      <point x="411" y="880"/>
      <point x="398" y="955"/>
      <point x="398" y="1007" type="curve" smooth="yes"/>
      <point x="398" y="1228"/>
      <point x="477" y="1325"/>
      <point x="651" y="1325" type="curve" smooth="yes"/>
      <point x="733" y="1325"/>
      <point x="802" y="1306"/>
      <point x="838" y="1128" type="curve"/>
      <point x="1003" y="1152" type="line"/>
      <point x="971" y="1371"/>
      <point x="878" y="1489"/>
      <point x="645" y="1489" type="curve" smooth="yes"/>
      <point x="359" y="1489"/>
      <point x="202" y="1321"/>
      <point x="202" y="988" type="curve" smooth="yes"/>
      <point x="202" y="942"/>
      <point x="215" y="873"/>
      <point x="219" y="823" type="curve"/>
      <point x="55" y="823" type="line"/>
      <point x="55" y="680" type="line"/>
      <point x="231" y="680" type="line"/>
      <point x="240" y="636"/>
      <point x="253" y="571"/>
      <point x="253" y="522" type="curve" smooth="yes"/>
      <point x="253" y="335"/>
      <point x="182" y="173"/>
      <point x="132" y="89" type="curve"/>
    </contour>
  </outline>
</glyph>
<glyph name="brokenbar" format="1">
  <advance width="416"/>
  <unicode hex="00A6"/>
  <outline>
    <contour>
      <point x="108" y="-198" type="line"/>
      <point x="313" y="-198" type="line"/>
      <point x="313" y="471" type="line"/>
      <point x="108" y="471" type="line"/>
    </contour>
    <contour>
      <point x="108" y="845" type="line"/>
      <point x="313" y="845" type="line"/>
      <point x="313" y="1504" type="line"/>
      <point x="108" y="1504" type="line"/>
    </contour>
  </outline>
</glyph>
<glyph name="section" format="1">
  <advance width="1005"/>
  <unicode hex="00A7"/>
  <outline>
    <contour>
      <point x="737.931" y="259.607" type="curve" smooth="yes"/>
      <point x="737.931" y="186.647"/>
      <point x="680.097" y="140"/>
      <point x="542" y="140" type="curve" smooth="yes"/>
      <point x="412" y="140"/>
      <point x="318" y="189"/>
      <point x="270" y="324" type="curve"/>
      <point x="127" y="273" type="line"/>
      <point x="167" y="49"/>
      <point x="374" y="-24"/>
      <point x="539" y="-24" type="curve" smooth="yes"/>
      <point x="768.608" y="-24"/>
      <point x="914.042" y="74.8124"/>
      <point x="914.042" y="267.276" type="curve" smooth="yes"/>
      <point x="914.042" y="365.953"/>
      <point x="845.937" y="433.709"/>
      <point x="772" y="483" type="curve"/>
      <point x="870" y="583"/>
      <point x="877" y="645"/>
      <point x="883" y="712" type="curve" smooth="yes"/>
      <point x="883.456" y="717.716"/>
      <point x="883.68" y="723.337"/>
      <point x="883.68" y="728.864" type="curve" smooth="yes"/>
      <point x="883.68" y="999.645"/>
      <point x="346.894" y="1047.55"/>
      <point x="346.894" y="1208.08" type="curve" smooth="yes"/>
      <point x="346.894" y="1283"/>
      <point x="407.624" y="1331.03"/>
      <point x="535.058" y="1331.03" type="curve" smooth="yes"/>
      <point x="624.425" y="1331.03"/>
      <point x="700.255" y="1308.64"/>
      <point x="756" y="1204" type="curve"/>
      <point x="756" y="1205"/>
      <point x="884" y="1284"/>
      <point x="884" y="1284" type="curve"/>
      <point x="812" y="1436"/>
      <point x="706" y="1489"/>
      <point x="529" y="1489" type="curve" smooth="yes"/>
      <point x="310" y="1489"/>
      <point x="150" y="1391"/>
      <point x="150" y="1204" type="curve" smooth="yes"/>
      <point x="150" y="1086"/>
      <point x="228" y="1028"/>
      <point x="296" y="987" type="curve"/>
      <point x="184.41" y="894.685"/>
      <point x="157.956" y="822.982"/>
      <point x="157.956" y="750.288" type="curve" smooth="yes"/>
      <point x="157.956" y="438.104"/>
      <point x="737.931" y="424.6"/>
    </contour>
    <contour>
      <point x="633" y="553" type="curve"/>
      <point x="451.616" y="633.083"/>
      <point x="326.451" y="677.56"/>
      <point x="326.451" y="764.996" type="curve" smooth="yes"/>
      <point x="326.451" y="805.303"/>
      <point x="353.049" y="854.739"/>
      <point x="413" y="921" type="curve"/>
      <point x="608.844" y="839.065"/>
      <point x="701.741" y="791.742"/>
      <point x="701.741" y="710.158" type="curve" smooth="yes"/>
      <point x="701.741" y="669.269"/>
      <point x="678.406" y="619.773"/>
    </contour>
  </outline>
</glyph>
<glyph name="copyright" format="1">
  <advance width="1702"/>
  <unicode hex="00A9"/>
  <outline>
    <contour>
      <point x="856" y="326" type="curve" smooth="yes"/>
      <point x="997" y="326"/>
      <point x="1095" y="394"/>
      <point x="1138" y="543" type="curve"/>
      <point x="1048" y="574" type="line"/>
      <point x="1015" y="471"/>
      <point x="965" y="424"/>
      <point x="860" y="424" type="curve" smooth="yes"/>
      <point x="700" y="424"/>
      <point x="635" y="526"/>
      <point x="635" y="781" type="curve" smooth="yes"/>
      <point x="635" y="1036"/>
      <point x="700" y="1137"/>
      <point x="860" y="1137" type="curve" smooth="yes"/>
      <point x="965" y="1137"/>
      <point x="1015" y="1091"/>
      <point x="1048" y="988" type="curve"/>
      <point x="1138" y="1019" type="line"/>
      <point x="1095" y="1167"/>
      <point x="997" y="1236"/>
      <point x="856" y="1236" type="curve" smooth="yes"/>
      <point x="642" y="1236"/>
      <point x="523" y="1105"/>
      <point x="523" y="781" type="curve" smooth="yes"/>
      <point x="523" y="457"/>
      <point x="642" y="326"/>
    </contour>
    <contour>
      <point x="849" y="114" type="curve" smooth="yes"/>
      <point x="481" y="114"/>
      <point x="199" y="379"/>
      <point x="199" y="773" type="curve" smooth="yes"/>
      <point x="199" y="1158"/>
      <point x="482" y="1436"/>
      <point x="850" y="1436" type="curve" smooth="yes"/>
      <point x="1219" y="1436"/>
      <point x="1503" y="1128"/>
      <point x="1503" y="773" type="curve" smooth="yes"/>
      <point x="1503" y="419"/>
      <point x="1218" y="114"/>
    </contour>
    <contour>
      <point x="850" y="53" type="curve" smooth="yes"/>
      <point x="1251" y="53"/>
      <point x="1579" y="375"/>
      <point x="1579" y="774" type="curve" smooth="yes"/>
      <point x="1579" y="1175"/>
      <point x="1251" y="1497"/>
      <point x="850" y="1497" type="curve" smooth="yes"/>
      <point x="451" y="1497"/>
      <point x="123" y="1205"/>
      <point x="123" y="774" type="curve" smooth="yes"/>
      <point x="123" y="335"/>
      <point x="451" y="53"/>
    </contour>
  </outline>
</glyph>
<glyph name="ordfeminine" format="1">
  <advance width="946"/>
  <unicode hex="00AA"/>
  <outline>
    <contour>
      <point x="399.704" y="582.774" type="curve" smooth="yes"/>
      <point x="518.708" y="582.774"/>
      <point x="596.408" y="639.116"/>
      <point x="647" y="699" type="curve"/>
      <point x="665" y="603" type="line"/>
      <point x="815" y="603" type="line"/>
      <point x="815" y="1141" type="line" smooth="yes"/>
      <point x="815" y="1359"/>
      <point x="694" y="1474"/>
      <point x="495" y="1474" type="curve" smooth="yes"/>
      <point x="398" y="1474"/>
      <point x="260" y="1422"/>
      <point x="185" y="1340" type="curve"/>
      <point x="185" y="1340"/>
      <point x="293" y="1241"/>
      <point x="293" y="1240" type="curve"/>
      <point x="350" y="1296"/>
      <point x="420" y="1335"/>
      <point x="497" y="1335" type="curve" smooth="yes"/>
      <point x="590" y="1335"/>
      <point x="643" y="1277"/>
      <point x="643" y="1164" type="curve" smooth="yes"/>
      <point x="643" y="1111" type="line"/>
      <point x="554" y="1104" type="line" smooth="yes"/>
      <point x="324" y="1085"/>
      <point x="147" y="1018"/>
      <point x="147" y="804" type="curve" smooth="yes"/>
      <point x="147" y="660.468"/>
      <point x="268.328" y="582.774"/>
    </contour>
    <contour>
      <point x="427.263" y="692.319" type="curve" smooth="yes"/>
      <point x="345.688" y="692.319"/>
      <point x="303.65" y="740.312"/>
      <point x="303.65" y="809.127" type="curve" smooth="yes"/>
      <point x="303.65" y="816.47"/>
      <point x="304.1" y="824.1"/>
      <point x="305" y="832" type="curve" smooth="yes"/>
      <point x="316" y="918"/>
      <point x="364" y="965"/>
      <point x="554" y="983" type="curve" smooth="yes"/>
      <point x="643" y="991" type="line"/>
      <point x="643" y="805" type="line"/>
      <point x="595.869" y="752.214"/>
      <point x="506.089" y="692.319"/>
    </contour>
  </outline>
</glyph>
<glyph name="logicalnot" format="1">
  <advance width="1024"/>
  <unicode hex="00AC"/>
  <outline>
    <contour>
      <point x="786" y="327" type="line"/>
      <point x="905" y="327" type="line"/>
      <point x="905" y="756" type="line"/>
      <point x="135" y="756" type="line"/>
      <point x="135" y="636" type="line"/>
      <point x="786" y="636" type="line"/>
    </contour>
  </outline>
</glyph>
<glyph name="plusminus" format="1">
  <advance width="860"/>
  <unicode hex="00B1"/>
  <outline>
    <contour>
      <point x="358" y="423" type="line"/>
      <point x="500" y="423" type="line"/>
      <point x="500" y="655" type="line"/>
      <point x="730" y="655" type="line"/>
      <point x="730" y="795" type="line"/>
      <point x="500" y="795" type="line"/>
      <point x="500" y="1023" type="line"/>
      <point x="358" y="1023" type="line"/>
      <point x="358" y="795" type="line"/>
      <point x="128" y="795" type="line"/>
      <point x="128" y="655" type="line"/>
      <point x="358" y="655" type="line"/>
    </contour>
    <contour>
      <point x="127" y="219" type="line"/>
      <point x="730" y="219" type="line"/>
      <point x="730" y="338" type="line"/>
      <point x="127" y="338" type="line"/>
    </contour>
  </outline>
</glyph>
<glyph name="uni00B2" format="1">
  <advance width="1243"/>
  <unicode hex="00B2"/>
  <outline>
    <contour>
      <point x="905.117" y="1199.79" type="curve" smooth="yes"/>
      <point x="905.117" y="1394.95"/>
      <point x="778.853" y="1489"/>
      <point x="611" y="1489" type="curve" smooth="yes"/>
      <point x="470" y="1489"/>
      <point x="361" y="1429"/>
      <point x="290" y="1269" type="curve"/>
      <point x="293" y="1268"/>
      <point x="411" y="1218"/>
      <point x="411" y="1218" type="curve"/>
      <point x="459" y="1324"/>
      <point x="523" y="1377"/>
      <point x="617" y="1377" type="curve" smooth="yes"/>
      <point x="708" y="1377"/>
      <point x="765" y="1309"/>
      <point x="765" y="1209" type="curve" smooth="yes"/>
      <point x="765" y="936"/>
      <point x="322" y="891"/>
      <point x="318" y="553" type="curve"/>
      <point x="906" y="553" type="line"/>
      <point x="906" y="662" type="line"/>
      <point x="480" y="662" type="line"/>
      <point x="601.625" y="853.832"/>
      <point x="905.117" y="930.287"/>
    </contour>
  </outline>
</glyph>
<glyph name="uni00B3" format="1">
  <advance width="1151"/>
  <unicode hex="00B3"/>
  <outline>
    <contour>
      <point x="274" y="748" type="line"/>
      <point x="312.073" y="590.699"/>
      <point x="427.725" y="532.995"/>
      <point x="568.126" y="532.995" type="curve" smooth="yes"/>
      <point x="763.755" y="532.995"/>
      <point x="868" y="670.476"/>
      <point x="868" y="802" type="curve"/>
      <point x="867" y="913"/>
      <point x="823" y="1021"/>
      <point x="685" y="1063" type="curve"/>
      <point x="790" y="1102"/>
      <point x="823" y="1187"/>
      <point x="823" y="1275" type="curve" smooth="yes"/>
      <point x="823" y="1398"/>
      <point x="722" y="1487"/>
      <point x="558" y="1487" type="curve" smooth="yes"/>
      <point x="451" y="1487"/>
      <point x="355" y="1438"/>
      <point x="296" y="1338" type="curve"/>
      <point x="395" y="1277" type="line"/>
      <point x="444" y="1354"/>
      <point x="497" y="1378"/>
      <point x="562" y="1378" type="curve" smooth="yes"/>
      <point x="642" y="1378"/>
      <point x="688" y="1330"/>
      <point x="688" y="1264" type="curve" smooth="yes"/>
      <point x="688" y="1180"/>
      <point x="663" y="1110"/>
      <point x="492" y="1110" type="curve"/>
      <point x="492" y="1003" type="line"/>
      <point x="637.1" y="1003"/>
      <point x="727.196" y="959.377"/>
      <point x="727.196" y="811.179" type="curve" smooth="yes"/>
      <point x="727.196" y="722.181"/>
      <point x="683.291" y="643.914"/>
      <point x="564.706" y="643.914" type="curve" smooth="yes"/>
      <point x="465.808" y="643.914"/>
      <point x="420.236" y="699.331"/>
      <point x="389" y="788" type="curve"/>
    </contour>
  </outline>
</glyph>
<glyph name="acute" format="1">
  <advance width="496"/>
  <unicode hex="00B4"/>
  <outline>
    <contour>
      <point x="19" y="1146" type="line"/>
      <point x="151" y="1146" type="line"/>
      <point x="493" y="1466" type="line"/>
      <point x="222" y="1466" type="line"/>
    </contour>
    <contour>
      <point x="118" y="1023" type="move" name="_top"/>
    </contour>
  </outline>
</glyph>
<glyph name="periodcentered" format="1">
  <advance width="434"/>
  <unicode hex="00B7"/>
  <outline>
    <contour>
      <point x="95" y="529" type="line"/>
      <point x="336" y="529" type="line"/>
      <point x="336" y="764" type="line"/>
      <point x="95" y="764" type="line"/>
    </contour>
  </outline>
</glyph>
<glyph name="cedilla" format="1">
  <advance width="435"/>
  <unicode hex="00B8"/>
  <outline>
    <contour>
      <point x="206" y="-510" type="curve" smooth="yes"/>
      <point x="322" y="-510"/>
      <point x="374" y="-401"/>
      <point x="374" y="-309" type="curve" smooth="yes"/>
      <point x="374" y="-106" type="line"/>
      <point x="120" y="-106" type="line"/>
      <point x="120" y="-294" type="line"/>
      <point x="235" y="-294" type="line"/>
      <point x="235" y="-394"/>
      <point x="228" y="-421"/>
      <point x="199" y="-421" type="curve" smooth="yes"/>
      <point x="189" y="-421"/>
      <point x="173" y="-416"/>
      <point x="158" y="-412" type="curve"/>
      <point x="158" y="-501" type="line"/>
      <point x="172" y="-507"/>
      <point x="192" y="-510"/>
    </contour>
    <contour>
      <point x="217.5" y="0" type="move" name="_bot"/>
    </contour>
  </outline>
</glyph>
<glyph name="onehalf" format="1">
  <advance width="1398"/>
  <unicode hex="00BD"/>
  <outline>
    <contour>
      <point x="1161" y="582" type="curve" smooth="yes"/>
      <point x="1228.17" y="582"/>
      <point x="1264.13" y="542.206"/>
      <point x="1264.13" y="481.176" type="curve" smooth="yes"/>
      <point x="1264.13" y="373.055"/>
      <point x="1127.43" y="289.873"/>
      <point x="928" y="115" type="curve"/>
      <point x="928" y="0" type="line"/>
      <point x="1418" y="0" type="line"/>
      <point x="1418" y="111" type="line"/>
      <point x="1134" y="112" type="line"/>
      <point x="1299.07" y="255.617"/>
      <point x="1418.91" y="332.267"/>
      <point x="1418.91" y="479.019" type="curve" smooth="yes"/>
      <point x="1418.91" y="643.151"/>
      <point x="1295.1" y="712"/>
      <point x="1169" y="712" type="curve" smooth="yes"/>
      <point x="1063" y="712"/>
      <point x="950" y="658"/>
      <point x="907" y="537" type="curve"/>
      <point x="1033" y="474" type="line"/>
      <point x="1051" y="540"/>
      <point x="1090" y="582"/>
    </contour>
    <contour>
      <point x="208" y="769" type="line"/>
      <point x="365" y="769" type="line"/>
      <point x="365" y="1464" type="line"/>
      <point x="222" y="1464" type="line"/>
      <point x="66" y="1391" type="line"/>
      <point x="95" y="1266" type="line"/>
      <point x="208" y="1326" type="line"/>
    </contour>
    <contour>
      <point x="156" y="-14" type="line"/>
      <point x="1391" y="1415" type="line"/>
      <point x="1283" y="1507" type="line"/>
      <point x="47" y="78" type="line"/>
    </contour>
  </outline>
</glyph>
<glyph name="AE" format="1">
  <advance width="2030"/>
  <unicode hex="00C6"/>
  <outline>
    <contour>
      <point x="-45" y="0" type="line"/>
      <point x="179" y="0" type="line"/>
      <point x="402" y="375" type="line"/>
      <point x="974" y="375" type="line"/>
      <point x="974" y="0" type="line"/>
      <point x="2015" y="0" type="line"/>
      <point x="2015" y="157" type="line"/>
      <point x="1177" y="157" type="line"/>
      <point x="1177" y="701" type="line"/>
      <point x="1842" y="701" type="line"/>
      <point x="1843" y="862" type="line"/>
      <point x="1177" y="862" type="line"/>
      <point x="1177" y="1307" type="line"/>
      <point x="2005" y="1307" type="line"/>
      <point x="2005" y="1464" type="line"/>
      <point x="828" y="1464" type="line"/>
    </contour>
    <contour>
      <point x="486" y="527" type="line"/>
      <point x="974" y="1384" type="line"/>
      <point x="974" y="527" type="line"/>
    </contour>
    <contour>
      <point x="1015" y="1464" type="move" name="top"/>
    </contour>
  </outline>
</glyph>
<glyph name="multiply" format="1">
  <advance width="734"/>
  <unicode hex="00D7"/>
  <outline>
    <contour>
      <point x="202" y="183" type="line"/>
      <point x="363" y="345" type="line"/>
      <point x="524" y="183" type="line"/>
      <point x="638" y="297" type="line"/>
      <point x="476" y="458" type="line"/>
      <point x="638" y="619" type="line"/>
      <point x="524" y="733" type="line"/>
      <point x="363" y="571" type="line"/>
      <point x="202" y="733" type="line"/>
      <point x="88" y="619" type="line"/>
      <point x="250" y="458" type="line"/>
      <point x="88" y="297" type="line"/>
    </contour>
  </outline>
</glyph>
<glyph name="Oslash" format="1">
  <advance width="1497"/>
  <unicode hex="00D8"/>
  <outline>
    <contour>
      <point x="354" y="-212" type="line"/>
      <point x="1244" y="1606" type="line"/>
      <point x="1126" y="1668" type="line"/>
      <point x="235" y="-150" type="line"/>
    </contour>
    <component base="O"/>
    <contour>
      <point x="748.5" y="1464" type="move" name="top"/>
    </contour>
  </outline>
</glyph>
<glyph name="germandbls" format="1">
  <advance width="1199"/>
  <unicode hex="00DF"/>
  <outline>
    <contour>
      <point x="956.021" y="1199.23" type="curve" smooth="yes"/>
      <point x="956.021" y="1368.78"/>
      <point x="828.61" y="1492.05"/>
      <point x="559.57" y="1492.05" type="curve" smooth="yes"/>
      <point x="328.602" y="1492.05"/>
      <point x="108" y="1370.33"/>
      <point x="108" y="1151" type="curve" smooth="yes"/>
      <point x="108" y="0" type="line"/>
      <point x="314" y="0" type="line"/>
      <point x="314" y="1136" type="line" smooth="yes"/>
      <point x="314" y="1265.44"/>
      <point x="417.485" y="1347.04"/>
      <point x="559.825" y="1347.04" type="curve" smooth="yes"/>
      <point x="707.931" y="1347.04"/>
      <point x="766" y="1291.75"/>
      <point x="766" y="1209" type="curve" smooth="yes"/>
      <point x="766" y="995.721"/>
      <point x="432.998" y="1033.21"/>
      <point x="432.998" y="815.255" type="curve" smooth="yes"/>
      <point x="432.998" y="573.201"/>
      <point x="917.038" y="554.956"/>
      <point x="917.038" y="338.335" type="curve" smooth="yes"/>
      <point x="917.038" y="199.364"/>
      <point x="768.552" y="164"/>
      <point x="441" y="164" type="curve"/>
      <point x="441" y="0" type="line"/>
      <point x="481" y="0" type="line" smooth="yes"/>
      <point x="1039.51" y="0"/>
      <point x="1124.01" y="115.918"/>
      <point x="1124.01" y="338.893" type="curve" smooth="yes"/>
      <point x="1124.01" y="654.062"/>
      <point x="635.998" y="717.194"/>
      <point x="635.998" y="822.677" type="curve" smooth="yes"/>
      <point x="635.998" y="882.001"/>
      <point x="956.021" y="930.259"/>
    </contour>
  </outline>
</glyph>
<glyph name="ae" format="1">
  <advance width="1667"/>
  <unicode hex="00E6"/>
  <outline>
    <contour>
      <point x="75.1896" y="273.885" type="curve" smooth="yes"/>
      <point x="75.1896" y="60.6631"/>
      <point x="241.127" y="-24"/>
      <point x="429" y="-24" type="curve" smooth="yes"/>
      <point x="598" y="-24"/>
      <point x="737" y="24"/>
      <point x="827" y="186" type="curve"/>
      <point x="890" y="35"/>
      <point x="1035" y="-24"/>
      <point x="1195" y="-24" type="curve" smooth="yes"/>
      <point x="1371" y="-22"/>
      <point x="1515" y="83"/>
      <point x="1570" y="234" type="curve"/>
      <point x="1432" y="290" type="line"/>
      <point x="1408.11" y="233.253"/>
      <point x="1342.59" y="121.993"/>
      <point x="1193.99" y="121.993" type="curve" smooth="yes"/>
      <point x="1002.33" y="121.993"/>
      <point x="932.995" y="248.171"/>
      <point x="926" y="480" type="curve"/>
      <point x="1592" y="492" type="line"/>
      <point x="1594" y="509"/>
      <point x="1595" y="563"/>
      <point x="1595" y="572" type="curve" smooth="yes"/>
      <point x="1595" y="844"/>
      <point x="1476" y="1046"/>
      <point x="1191" y="1046" type="curve" smooth="yes"/>
      <point x="1052" y="1046"/>
      <point x="917" y="987"/>
      <point x="848" y="848" type="curve"/>
      <point x="798" y="1005"/>
      <point x="648" y="1046"/>
      <point x="518" y="1046" type="curve" smooth="yes"/>
      <point x="366" y="1046"/>
      <point x="243" y="1010"/>
      <point x="129" y="931" type="curve"/>
      <point x="206" y="807" type="line"/>
      <point x="284.534" y="857.55"/>
      <point x="381.809" y="901.582"/>
      <point x="494.883" y="901.582" type="curve" smooth="yes"/>
      <point x="687.806" y="901.582"/>
      <point x="723.777" y="812.365"/>
      <point x="727" y="605" type="curve"/>
      <point x="593" y="603" type="line" smooth="yes"/>
      <point x="267.198" y="597.217"/>
      <point x="75.1896" y="507.812"/>
    </contour>
    <contour>
      <point x="459.687" y="120.694" type="curve" smooth="yes"/>
      <point x="339.347" y="120.694"/>
      <point x="274.828" y="172.016"/>
      <point x="274.828" y="275.313" type="curve" smooth="yes"/>
      <point x="274.828" y="411.306"/>
      <point x="402.443" y="458.261"/>
      <point x="610" y="463" type="curve"/>
      <point x="729" y="465" type="line"/>
      <point x="729" y="377" type="line" smooth="yes"/>
      <point x="729" y="203.125"/>
      <point x="616.094" y="120.694"/>
    </contour>
    <contour>
      <point x="929" y="611" type="line"/>
      <point x="942" y="771"/>
      <point x="1022" y="901"/>
      <point x="1189" y="901" type="curve" smooth="yes"/>
      <point x="1350" y="901"/>
      <point x="1407" y="796"/>
      <point x="1418" y="620" type="curve"/>
    </contour>
    <contour>
      <point x="833.5" y="1023" type="move" name="top"/>
    </contour>
  </outline>
</glyph>
<glyph name="eth" format="1">
  <advance width="1053"/>
  <unicode hex="00F0"/>
  <outline>
    <contour>
      <point x="70" y="454" type="curve" smooth="yes"/>
      <point x="70" y="206.906"/>
      <point x="222.223" y="-24.0125"/>
      <point x="522.067" y="-24.0125" type="curve" smooth="yes"/>
      <point x="846.161" y="-24.0125"/>
      <point x="985" y="214.313"/>
      <point x="985" y="529" type="curve" smooth="yes"/>
      <point x="985" y="774"/>
      <point x="925" y="1031"/>
      <point x="760" y="1207" type="curve"/>
      <point x="934" y="1321" type="line"/>
      <point x="861" y="1424" type="line"/>
      <point x="661" y="1294" type="line"/>
      <point x="541" y="1379"/>
      <point x="379" y="1432"/>
      <point x="169" y="1432" type="curve"/>
      <point x="169" y="1302" type="line"/>
      <point x="316" y="1302"/>
      <point x="433" y="1264"/>
      <point x="524" y="1204" type="curve"/>
      <point x="375" y="1107" type="line"/>
      <point x="448" y="1004" type="line"/>
      <point x="624" y="1119" type="line"/>
      <point x="719" y="1017"/>
      <point x="768" y="888"/>
      <point x="783" y="774" type="curve"/>
      <point x="715" y="865"/>
      <point x="612" y="908"/>
      <point x="503" y="908" type="curve" smooth="yes"/>
      <point x="284" y="908"/>
      <point x="70" y="746"/>
    </contour>
    <contour>
      <point x="531.464" y="126.743" type="curve" smooth="yes"/>
      <point x="382.49" y="126.743"/>
      <point x="268" y="243.283"/>
      <point x="268" y="443" type="curve" smooth="yes"/>
      <point x="268" y="633"/>
      <point x="378" y="755"/>
      <point x="523" y="755" type="curve" smooth="yes"/>
      <point x="621" y="755"/>
      <point x="697" y="707"/>
      <point x="789" y="607" type="curve"/>
      <point x="795" y="581"/>
      <point x="796" y="535"/>
      <point x="796" y="511" type="curve" smooth="yes"/>
      <point x="796" y="303.551"/>
      <point x="718.44" y="126.743"/>
    </contour>
  </outline>
</glyph>
<glyph name="thorn" format="1">
  <advance width="1058"/>
  <unicode hex="00FE"/>
  <outline>
    <contour>
      <point x="92" y="-394" type="line"/>
      <point x="290" y="-373" type="line"/>
      <point x="290" y="110" type="line"/>
      <point x="346" y="38"/>
      <point x="442" y="-24"/>
      <point x="585" y="-24" type="curve" smooth="yes"/>
      <point x="846" y="-24"/>
      <point x="1005" y="217"/>
      <point x="1005" y="520" type="curve" smooth="yes"/>
      <point x="1005" y="836"/>
      <point x="862" y="1046"/>
      <point x="579" y="1046" type="curve" smooth="yes"/>
      <point x="437" y="1046"/>
      <point x="346" y="986"/>
      <point x="289" y="912" type="curve"/>
      <point x="289" y="1464" type="line"/>
      <point x="92" y="1464" type="line"/>
    </contour>
    <contour>
      <point x="552.7" y="904.031" type="curve" smooth="yes"/>
      <point x="693.732" y="904.031"/>
      <point x="801" y="788.259"/>
      <point x="801" y="521" type="curve" smooth="yes"/>
      <point x="801" y="283"/>
      <point x="734" y="118"/>
      <point x="569" y="118" type="curve" smooth="yes"/>
      <point x="392.837" y="118"/>
      <point x="289.95" y="248.506"/>
      <point x="289.95" y="528.707" type="curve" smooth="yes"/>
      <point x="289.95" y="812.021"/>
      <point x="418.749" y="904.031"/>
    </contour>
  </outline>
</glyph>
<glyph name="dcroat" format="1">
  <advance width="1137"/>
  <unicode hex="0111"/>
  <outline>
    <contour>
      <point x="586" y="1181" type="line"/>
      <point x="1130" y="1181" type="line"/>
      <point x="1130" y="1301" type="line"/>
      <point x="586" y="1301" type="line"/>
    </contour>
    <component base="d"/>
  </outline>
</glyph>
<glyph name="Hbar" format="1">
  <advance width="1457"/>
  <unicode hex="0126"/>
  <outline>
    <component base="H"/>
    <contour>
      <point x="48" y="1144" type="line"/>
      <point x="1446" y="1144" type="line"/>
      <point x="1446" y="1249" type="line"/>
      <point x="48" y="1249" type="line"/>
    </contour>
  </outline>
</glyph>
<glyph name="kgreenlandic" format="1">
  <advance width="1010"/>
  <unicode hex="0138"/>
  <outline>
    <contour>
      <point x="832" y="0" type="line"/>
      <point x="1056" y="0" type="line"/>
      <point x="628" y="590" type="line"/>
      <point x="1001" y="1023" type="line"/>
      <point x="773" y="1023" type="line"/>
      <point x="337" y="529" type="line"/>
      <point x="337" y="1023" type="line"/>
      <point x="139" y="1023" type="line"/>
      <point x="139" y="0" type="line"/>
      <point x="337" y="0" type="line"/>
      <point x="337" y="319" type="line"/>
      <point x="495" y="481" type="line"/>
    </contour>
  </outline>
</glyph>
<glyph name="Lslash" format="1">
  <advance width="1055"/>
  <unicode hex="0141"/>
  <outline>
    <contour>
      <point x="-29" y="594" type="line"/>
      <point x="631" y="854" type="line"/>
      <point x="631" y="1024" type="line"/>
      <point x="-29" y="764" type="line"/>
    </contour>
    <component base="L"/>
  </outline>
</glyph>
<glyph name="lslash" format="1">
  <advance width="421"/>
  <unicode hex="0142"/>
  <outline>
    <contour>
      <point x="-43" y="623" type="line"/>
      <point x="497" y="868" type="line"/>
      <point x="497" y="1032" type="line"/>
      <point x="-43" y="787" type="line"/>
    </contour>
    <component base="l"/>
  </outline>
</glyph>
<glyph name="Eng" format="1">
  <advance width="1497"/>
  <unicode hex="014A"/>
  <outline>
    <contour>
      <point x="888" y="-490" type="line"/>
      <point x="1172" y="-490"/>
      <point x="1357" y="-377"/>
      <point x="1357" y="-36" type="curve" smooth="yes"/>
      <point x="1357" y="1464" type="line"/>
      <point x="1180" y="1464" type="line"/>
      <point x="1180" y="312" type="line"/>
      <point x="365" y="1464" type="line"/>
      <point x="139" y="1464" type="line"/>
      <point x="139" y="0" type="line"/>
      <point x="323" y="0" type="line"/>
      <point x="323" y="1221" type="line"/>
      <point x="609.046" y="814.38"/>
      <point x="891.998" y="404.664"/>
      <point x="1180" y="0" type="curve"/>
      <point x="1180" y="-33" type="line" smooth="yes"/>
      <point x="1180" y="-250"/>
      <point x="1095" y="-339"/>
      <point x="890" y="-342" type="curve"/>
    </contour>
  </outline>
</glyph>
<glyph name="Eng" format="1">
  <advance width="1497"/>
  <unicode hex="014A"/>
  <outline>
    <contour>
      <point x="888" y="-490" type="line"/>
      <point x="1172" y="-490"/>
      <point x="1357" y="-377"/>
      <point x="1357" y="-36" type="curve" smooth="yes"/>
      <point x="1357" y="588" type="line"/>
      <point x="1180" y="588" type="line"/>
      <point x="1180" y="-33" type="line" smooth="yes"/>
      <point x="1180" y="-250"/>
      <point x="1095" y="-339"/>
      <point x="890" y="-342" type="curve"/>
    </contour>
    <component base="N"/>
  </outline>
</glyph>
<glyph name="eng" format="1">
  <advance width="1126"/>
  <unicode hex="014B"/>
  <outline>
    <contour>
      <point x="540" y="-410" type="line"/>
      <point x="824" y="-409"/>
      <point x="1010" y="-297"/>
      <point x="1010" y="-24" type="curve" smooth="yes"/>
      <point x="1010" y="168" type="line"/>
      <point x="812" y="168" type="line"/>
      <point x="812" y="-22" type="line" smooth="yes"/>
      <point x="812" y="-169"/>
      <point x="748" y="-259"/>
      <point x="543" y="-261" type="curve"/>
    </contour>
    <component base="n"/>
  </outline>
</glyph>
<glyph name="OE" format="1">
  <advance width="2171"/>
  <unicode hex="0152"/>
  <outline>
    <contour>
      <point x="717" y="-25" type="curve" smooth="yes"/>
      <point x="974" y="-25"/>
      <point x="1098" y="62"/>
      <point x="1164" y="188" type="curve"/>
      <point x="1164" y="0" type="line"/>
      <point x="2121" y="0" type="line"/>
      <point x="2121" y="155" type="line"/>
      <point x="1369" y="155" type="line"/>
      <point x="1369" y="700" type="line"/>
      <point x="2012" y="700" type="line"/>
      <point x="2012" y="857" type="line"/>
      <point x="1369" y="857" type="line"/>
      <point x="1369" y="1309" type="line"/>
      <point x="2110" y="1309" type="line"/>
      <point x="2110" y="1464" type="line"/>
      <point x="1163" y="1464" type="line"/>
      <point x="1163" y="1284" type="line"/>
      <point x="1086" y="1415"/>
      <point x="948" y="1491"/>
      <point x="719" y="1491" type="curve" smooth="yes"/>
      <point x="340" y="1491"/>
      <point x="102" y="1282"/>
      <point x="102" y="740" type="curve" smooth="yes"/>
      <point x="102" y="186"/>
      <point x="334" y="-25"/>
    </contour>
    <contour>
      <point x="739.738" y="139.763" type="curve" smooth="yes"/>
      <point x="417.111" y="139.763"/>
      <point x="316" y="319.508"/>
      <point x="316" y="741" type="curve" smooth="yes"/>
      <point x="316" y="1140.96"/>
      <point x="420.815" y="1327.28"/>
      <point x="741.971" y="1327.28" type="curve" smooth="yes"/>
      <point x="1066.76" y="1327.28"/>
      <point x="1164" y="1164.54"/>
      <point x="1164" y="732" type="curve" smooth="yes"/>
      <point x="1164" y="290.161"/>
      <point x="1050.29" y="139.763"/>
    </contour>
  </outline>
</glyph>
<glyph name="oe" format="1">
  <advance width="2129"/>
  <unicode hex="0153"/>
  <outline>
    <contour>
      <point x="553" y="-24" type="curve" smooth="yes"/>
      <point x="713" y="-24"/>
      <point x="845" y="47"/>
      <point x="913" y="181" type="curve"/>
      <point x="972" y="61"/>
      <point x="1106" y="-24"/>
      <point x="1275" y="-24" type="curve" smooth="yes"/>
      <point x="1465" y="-24"/>
      <point x="1616" y="89"/>
      <point x="1663" y="267" type="curve"/>
      <point x="1514" y="300" type="line"/>
      <point x="1479" y="202"/>
      <point x="1411" y="117"/>
      <point x="1272" y="117" type="curve" smooth="yes"/>
      <point x="1083" y="117"/>
      <point x="1014" y="297"/>
      <point x="1012" y="474" type="curve"/>
      <point x="1679" y="474" type="line"/>
      <point x="1681" y="491"/>
      <point x="1682" y="558"/>
      <point x="1682" y="567" type="curve" smooth="yes"/>
      <point x="1682" y="840"/>
      <point x="1551" y="1046"/>
      <point x="1266" y="1046" type="curve" smooth="yes"/>
      <point x="1109" y="1046"/>
      <point x="979" y="963"/>
      <point x="912" y="835" type="curve"/>
      <point x="848" y="968"/>
      <point x="712" y="1046"/>
      <point x="553" y="1046" type="curve" smooth="yes"/>
      <point x="271" y="1046"/>
      <point x="94" y="865"/>
      <point x="94" y="512" type="curve" smooth="yes"/>
      <point x="94" y="158"/>
      <point x="271" y="-24"/>
    </contour>
    <contour>
      <point x="553" y="116" type="curve" smooth="yes"/>
      <point x="342" y="116"/>
      <point x="297" y="317"/>
      <point x="297" y="512" type="curve" smooth="yes"/>
      <point x="297" y="706"/>
      <point x="342" y="906"/>
      <point x="553" y="906" type="curve" smooth="yes"/>
      <point x="765" y="906"/>
      <point x="810" y="706"/>
      <point x="810" y="512" type="curve" smooth="yes"/>
      <point x="810" y="317"/>
      <point x="765" y="116"/>
    </contour>
    <contour>
      <point x="1012" y="604" type="line"/>
      <point x="1019" y="733"/>
      <point x="1081" y="905"/>
      <point x="1263" y="905" type="curve" smooth="yes"/>
      <point x="1431" y="905"/>
      <point x="1495" y="799"/>
      <point x="1496" y="604" type="curve"/>
    </contour>
    <contour>
      <point x="1745" y="0" type="move" name="ogonek"/>
    </contour>
  </outline>
</glyph>
<glyph name="Tbar" format="1">
  <advance width="1119"/>
  <unicode hex="0166"/>
  <outline>
    <component base="T"/>
    <contour>
      <point x="247" y="682" type="line"/>
      <point x="885" y="682" type="line"/>
      <point x="885" y="822" type="line"/>
      <point x="247" y="822" type="line"/>
    </contour>
  </outline>
</glyph>
<glyph name="Tbar" format="1">
  <advance width="1119"/>
  <unicode hex="0166"/>
  <outline>
    <contour>
      <point x="247" y="682" type="line"/>
      <point x="885" y="682" type="line"/>
      <point x="885" y="822" type="line"/>
      <point x="247" y="822" type="line"/>
    </contour>
    <component base="T"/>
  </outline>
</glyph>
<glyph name="florin" format="1">
  <advance width="1026"/>
  <unicode hex="0192"/>
  <outline>
    <contour>
      <point x="405" y="-170" type="line"/>
      <point x="633" y="806" type="line"/>
      <point x="846" y="806" type="line"/>
      <point x="864" y="894" type="line"/>
      <point x="652" y="894" type="line"/>
      <point x="737" y="1253" type="line" smooth="yes"/>
      <point x="760" y="1352"/>
      <point x="780" y="1450"/>
      <point x="861" y="1450" type="curve" smooth="yes"/>
      <point x="898" y="1450"/>
      <point x="923" y="1402"/>
      <point x="923" y="1299" type="curve"/>
      <point x="1088" y="1299" type="line"/>
      <point x="1089" y="1488"/>
      <point x="980" y="1536"/>
      <point x="854" y="1536" type="curve" smooth="yes"/>
      <point x="660" y="1536"/>
      <point x="578" y="1401"/>
      <point x="540" y="1242" type="curve" smooth="yes"/>
      <point x="458" y="894" type="line"/>
      <point x="296" y="894" type="line"/>
      <point x="278" y="806" type="line"/>
      <point x="443" y="806" type="line"/>
      <point x="214" y="-169" type="line"/>
    </contour>
  </outline>
</glyph>
<glyph name="circumflex" format="1">
  <advance width="838"/>
  <unicode hex="02C6"/>
  <outline>
    <contour>
      <point x="140" y="1154" type="line"/>
      <point x="273" y="1154" type="line"/>
      <point x="420" y="1379" type="line"/>
      <point x="568" y="1154" type="line"/>
      <point x="701" y="1154" type="line"/>
      <point x="540" y="1474" type="line"/>
      <point x="301" y="1474" type="line"/>
    </contour>
    <contour>
      <point x="419" y="1023" type="move" name="_top"/>
    </contour>
  </outline>
</glyph>
<glyph name="caron" format="1">
  <advance width="838"/>
  <unicode hex="02C7"/>
  <outline>
    <contour>
      <point x="305" y="1154" type="line"/>
      <point x="544" y="1154" type="line"/>
      <point x="705" y="1474" type="line"/>
      <point x="572" y="1474" type="line"/>
      <point x="424" y="1249" type="line"/>
      <point x="277" y="1474" type="line"/>
      <point x="144" y="1474" type="line"/>
    </contour>
    <contour>
      <point x="419" y="1023" type="move" name="_top"/>
    </contour>
  </outline>
</glyph>
<glyph name="dotaccent" format="1">
  <advance width="434"/>
  <unicode hex="02D9"/>
  <outline>
    <contour>
      <point x="114" y="1233" type="line"/>
      <point x="317" y="1233" type="line"/>
      <point x="317" y="1468" type="line"/>
      <point x="114" y="1468" type="line"/>
    </contour>
    <contour>
      <point x="218" y="1023" type="move" name="_top"/>
    </contour>
  </outline>
</glyph>
<glyph name="ring" format="1">
  <advance width="728"/>
  <unicode hex="02DA"/>
  <outline>
    <contour>
      <point x="365" y="1331" type="curve" smooth="yes"/>
      <point x="286" y="1331"/>
      <point x="242" y="1391"/>
      <point x="242" y="1465" type="curve" smooth="yes"/>
      <point x="242" y="1539"/>
      <point x="286" y="1600"/>
      <point x="365" y="1600" type="curve" smooth="yes"/>
      <point x="444" y="1600"/>
      <point x="488" y="1539"/>
      <point x="488" y="1465" type="curve" smooth="yes"/>
      <point x="488" y="1391"/>
      <point x="444" y="1331"/>
    </contour>
    <contour>
      <point x="365" y="1214" type="curve" smooth="yes"/>
      <point x="529" y="1214"/>
      <point x="623" y="1334"/>
      <point x="623" y="1465" type="curve" smooth="yes"/>
      <point x="623" y="1597"/>
      <point x="529" y="1716"/>
      <point x="365" y="1716" type="curve" smooth="yes"/>
      <point x="201" y="1716"/>
      <point x="107" y="1597"/>
      <point x="107" y="1465" type="curve" smooth="yes"/>
      <point x="107" y="1334"/>
      <point x="201" y="1214"/>
    </contour>
    <contour>
      <point x="364" y="1023" type="move" name="_top"/>
    </contour>
  </outline>
</glyph>
<glyph name="ogonek" format="1">
  <advance width="462"/>
  <unicode hex="02DB"/>
  <outline>
    <contour>
      <point x="299" y="0" type="move" name="_ogonek"/>
    </contour>
    <contour>
      <point x="386" y="-375" type="curve"/>
      <point x="386" y="-264" type="line"/>
      <point x="369.324" y="-267.817"/>
      <point x="355.11" y="-269.576"/>
      <point x="343.042" y="-269.576" type="curve" smooth="yes"/>
      <point x="295.048" y="-269.576"/>
      <point x="281" y="-241.758"/>
      <point x="281" y="-205" type="curve" smooth="yes"/>
      <point x="281" y="-147"/>
      <point x="312" y="-80"/>
      <point x="347" y="0" type="curve"/>
      <point x="252" y="0" type="line"/>
      <point x="188.849" y="-72.1728"/>
      <point x="116.991" y="-156.373"/>
      <point x="116.991" y="-242.519" type="curve" smooth="yes"/>
      <point x="116.991" y="-308.098"/>
      <point x="169.882" y="-386.984"/>
      <point x="294.757" y="-386.984" type="curve" smooth="yes"/>
      <point x="321.745" y="-386.984"/>
      <point x="352.095" y="-383.3"/>
    </contour>
  </outline>
</glyph>
<glyph name="tilde" format="1">
  <advance width="798"/>
  <unicode hex="02DC"/>
  <outline>
    <contour>
      <point x="399" y="1023" type="move" name="_top"/>
    </contour>
    <contour>
      <point x="586" y="1194" type="curve" smooth="yes"/>
      <point x="654" y="1194"/>
      <point x="691" y="1263"/>
      <point x="691" y="1379" type="curve" smooth="yes"/>
      <point x="691" y="1394"/>
      <point x="691" y="1410"/>
      <point x="689" y="1427" type="curve"/>
      <point x="565" y="1427" type="line"/>
      <point x="565" y="1369"/>
      <point x="555" y="1347"/>
      <point x="528" y="1347" type="curve" smooth="yes"/>
      <point x="457" y="1347"/>
      <point x="341" y="1432"/>
      <point x="226" y="1432" type="curve" smooth="yes"/>
      <point x="165" y="1432"/>
      <point x="107" y="1382"/>
      <point x="107" y="1258" type="curve" smooth="yes"/>
      <point x="107" y="1240"/>
      <point x="108" y="1221"/>
      <point x="111" y="1200" type="curve"/>
      <point x="234" y="1200" type="line"/>
      <point x="234" y="1260"/>
      <point x="255" y="1282"/>
      <point x="279" y="1282" type="curve"/>
      <point x="380" y="1275"/>
      <point x="476" y="1194"/>
    </contour>
  </outline>
</glyph>
<glyph name="hungarumlaut" format="1">
  <advance width="745"/>
  <unicode hex="02DD"/>
  <outline>
    <contour>
      <point x="55" y="1134" type="line"/>
      <point x="147" y="1134" type="line"/>
      <point x="389" y="1470" type="line"/>
      <point x="128" y="1470" type="line"/>
    </contour>
    <contour>
      <point x="371" y="1134" type="line"/>
      <point x="472" y="1134" type="line"/>
      <point x="741" y="1470" type="line"/>
      <point x="472" y="1470" type="line"/>
    </contour>
    <contour>
      <point x="372.5" y="1023" type="move" name="_top"/>
    </contour>
  </outline>
</glyph>
<glyph name="uni0307" format="1">
  <advance width="539"/>
  <unicode hex="0307"/>
  <outline>
    <contour>
      <point x="270" y="1268" type="curve" smooth="yes"/>
      <point x="351" y="1268"/>
      <point x="392" y="1331"/>
      <point x="392" y="1393" type="curve" smooth="yes"/>
      <point x="392" y="1455"/>
      <point x="351" y="1517"/>
      <point x="270" y="1517" type="curve" smooth="yes"/>
      <point x="189" y="1517"/>
      <point x="148" y="1455"/>
      <point x="148" y="1393" type="curve" smooth="yes"/>
      <point x="148" y="1331"/>
      <point x="189" y="1268"/>
    </contour>
    <contour>
      <point x="269.5" y="1023" type="move" name="_top"/>
    </contour>
  </outline>
</glyph>
<glyph name="uni030F" format="1">
  <advance width="745"/>
  <unicode hex="030F"/>
  <outline>
    <contour>
      <point x="322" y="1152" type="line"/>
      <point x="423" y="1152" type="line"/>
      <point x="323" y="1488" type="line"/>
      <point x="53" y="1488" type="line"/>
    </contour>
    <contour>
      <point x="648" y="1152" type="line"/>
      <point x="739" y="1152" type="line"/>
      <point x="666" y="1488" type="line"/>
      <point x="405" y="1488" type="line"/>
    </contour>
  </outline>
</glyph>
<glyph name="uni0311" format="1">
  <advance width="805"/>
  <unicode hex="0311"/>
  <outline>
    <contour>
      <point x="116" y="1166" type="curve"/>
      <point x="277" y="1166" type="line"/>
      <point x="277" y="1241"/>
      <point x="307" y="1293"/>
      <point x="402" y="1293" type="curve" smooth="yes"/>
      <point x="497" y="1293"/>
      <point x="527" y="1241"/>
      <point x="527" y="1166" type="curve"/>
      <point x="688" y="1166" type="line"/>
      <point x="684" y="1362"/>
      <point x="541" y="1438"/>
      <point x="402" y="1438" type="curve" smooth="yes"/>
      <point x="263" y="1438"/>
      <point x="120" y="1362"/>
    </contour>
  </outline>
</glyph>
<glyph name="uni0312" format="1">
  <advance width="600"/>
  <unicode hex="0312"/>
  <outline>
    <contour>
      <point x="191" y="1202" type="line"/>
      <point x="451" y="1202" type="line"/>
      <point x="451" y="1432" type="line"/>
      <point x="337" y="1445" type="line"/>
      <point x="338" y="1533"/>
      <point x="396" y="1610"/>
      <point x="428" y="1639" type="curve"/>
      <point x="359" y="1725" type="line"/>
      <point x="217" y="1642"/>
      <point x="192" y="1525"/>
      <point x="191" y="1335" type="curve"/>
    </contour>
  </outline>
</glyph>
<glyph name="uni0326" format="1">
  <advance width="409"/>
  <unicode hex="0326"/>
  <outline>
    <contour>
      <point x="183" y="-655" type="line"/>
      <point x="306" y="-590"/>
      <point x="344" y="-478"/>
      <point x="344" y="-295" type="curve" smooth="yes"/>
      <point x="344" y="-147" type="line"/>
      <point x="88" y="-147" type="line"/>
      <point x="88" y="-373" type="line"/>
      <point x="205" y="-383" type="line"/>
      <point x="205" y="-457"/>
      <point x="155" y="-543"/>
      <point x="117" y="-577" type="curve"/>
    </contour>
  </outline>
</glyph>
<glyph name="Sigma" format="1">
  <advance width="1269"/>
  <unicode hex="03A3"/>
  <outline>
    <contour>
      <point x="1161" y="0" type="line"/>
      <point x="1161" y="173" type="line"/>
      <point x="340" y="173" type="line"/>
      <point x="815" y="676" type="line"/>
      <point x="815" y="803" type="line"/>
      <point x="371" y="1294" type="line"/>
      <point x="1161" y="1294" type="line"/>
      <point x="1161" y="1464" type="line"/>
      <point x="115" y="1464" type="line"/>
      <point x="115" y="1295" type="line"/>
      <point x="614" y="722" type="line"/>
      <point x="115" y="192" type="line"/>
      <point x="115" y="0" type="line"/>
    </contour>
  </outline>
</glyph>
<glyph name="quoteleft" format="1">
  <advance width="330"/>
  <unicode hex="2018"/>
  <outline>
    <contour>
      <point x="3" y="951" type="line"/>
      <point x="265" y="951" type="line"/>
      <point x="265" y="1180" type="line"/>
      <point x="155" y="1195" type="line"/>
      <point x="155" y="1309"/>
      <point x="180" y="1343"/>
      <point x="246" y="1456" type="curve"/>
      <point x="245" y="1456"/>
      <point x="147" y="1508"/>
      <point x="147" y="1510" type="curve"/>
      <point x="5" y="1398"/>
      <point x="3" y="1246"/>
      <point x="3" y="1081" type="curve" smooth="yes"/>
    </contour>
  </outline>
</glyph>
<glyph name="perthousand" format="1">
  <advance width="2415"/>
  <unicode hex="2030"/>
  <outline>
    <component base="percent"/>
    <contour>
      <point x="2061" y="111" type="curve" smooth="yes"/>
      <point x="1954" y="111"/>
      <point x="1900" y="208"/>
      <point x="1900" y="330" type="curve" smooth="yes"/>
      <point x="1900" y="446"/>
      <point x="1958" y="546"/>
      <point x="2061" y="546" type="curve" smooth="yes"/>
      <point x="2166" y="546"/>
      <point x="2221" y="449"/>
      <point x="2221" y="329" type="curve" smooth="yes"/>
      <point x="2221" y="208"/>
      <point x="2165" y="111"/>
    </contour>
    <contour>
      <point x="2062" y="-19" type="curve" smooth="yes"/>
      <point x="2263" y="-19"/>
      <point x="2373" y="153"/>
      <point x="2373" y="327" type="curve" smooth="yes"/>
      <point x="2373" y="499"/>
      <point x="2263" y="674"/>
      <point x="2062" y="674" type="curve" smooth="yes"/>
      <point x="1859" y="674"/>
      <point x="1747" y="499"/>
      <point x="1747" y="326" type="curve" smooth="yes"/>
      <point x="1747" y="153"/>
      <point x="1857" y="-19"/>
    </contour>
  </outline>
</glyph>
<glyph name="guilsinglright" format="1">
  <advance width="528"/>
  <unicode hex="203A"/>
  <outline>
    <contour>
      <point x="41" y="234" type="line"/>
      <point x="481" y="511" type="line"/>
      <point x="481" y="788" type="line"/>
      <point x="41" y="1065" type="line"/>
      <point x="41" y="867" type="line"/>
      <point x="343" y="650" type="line"/>
      <point x="41" y="431" type="line"/>
    </contour>
  </outline>
</glyph>
<glyph name="Euro" format="1">
  <advance width="1275"/>
  <unicode hex="20AC"/>
  <outline>
    <contour>
      <point x="-52" y="531" type="line"/>
      <point x="682" y="531" type="line"/>
      <point x="682" y="665" type="line"/>
      <point x="-52" y="665" type="line"/>
    </contour>
    <contour>
      <point x="-52" y="786" type="line"/>
      <point x="682" y="786" type="line"/>
      <point x="682" y="920" type="line"/>
      <point x="-52" y="920" type="line"/>
    </contour>
    <component base="C"/>
  </outline>
</glyph>
<glyph name="afii61289" format="1">
  <advance width="852"/>
  <unicode hex="2113"/>
  <outline>
    <contour>
      <point x="424" y="875" type="line"/>
      <point x="424" y="301" type="line" smooth="yes"/>
      <point x="424" y="169"/>
      <point x="477" y="131"/>
      <point x="551" y="131" type="curve" smooth="yes"/>
      <point x="586" y="131"/>
      <point x="635" y="143"/>
      <point x="683" y="163" type="curve"/>
      <point x="716" y="32" type="line"/>
      <point x="651" y="1"/>
      <point x="581" y="-16"/>
      <point x="516" y="-16" type="curve" smooth="yes"/>
      <point x="357.364" y="-16"/>
      <point x="225.912" y="58.7552"/>
      <point x="225.912" y="287.663" type="curve" smooth="yes"/>
      <point x="225.912" y="291.074"/>
      <point x="225.941" y="294.52"/>
      <point x="226" y="298" type="curve" smooth="yes"/>
      <point x="226" y="742" type="line"/>
      <point x="79" y="625" type="line"/>
      <point x="16" y="716" type="line"/>
      <point x="226" y="886" type="line"/>
      <point x="226" y="1245" type="line" smooth="yes"/>
      <point x="226" y="1464"/>
      <point x="362" y="1568"/>
      <point x="525" y="1568" type="curve" smooth="yes"/>
      <point x="676" y="1568"/>
      <point x="778" y="1475"/>
      <point x="778" y="1342" type="curve" smooth="yes"/>
      <point x="778" y="1234"/>
      <point x="712" y="1104"/>
      <point x="560" y="983" type="curve" smooth="yes"/>
    </contour>
    <contour>
      <point x="496" y="1076" type="line"/>
      <point x="583.922" y="1159.64"/>
      <point x="615.221" y="1231.61"/>
      <point x="615.221" y="1285.51" type="curve" smooth="yes"/>
      <point x="615.221" y="1351.6"/>
      <point x="568.154" y="1390.54"/>
      <point x="520.722" y="1390.54" type="curve" smooth="yes"/>
      <point x="472.549" y="1390.54"/>
      <point x="424" y="1350.38"/>
      <point x="424" y="1257.72" type="curve" smooth="yes"/>
      <point x="424" y="1014.87" type="line"/>
    </contour>
  </outline>
</glyph>
<glyph name="trademark" format="1">
  <advance width="1847"/>
  <unicode hex="2122"/>
  <outline>
    <contour>
      <point x="917" y="615" type="line"/>
      <point x="1064" y="615" type="line"/>
      <point x="1064" y="1206" type="line"/>
      <point x="1266" y="731" type="line"/>
      <point x="1393" y="731" type="line"/>
      <point x="1598" y="1203" type="line"/>
      <point x="1598" y="615" type="line"/>
      <point x="1739" y="615" type="line"/>
      <point x="1739" y="1463" type="line"/>
      <point x="1564" y="1463" type="line"/>
      <point x="1334" y="932" type="line"/>
      <point x="1103" y="1464" type="line"/>
      <point x="917" y="1464" type="line"/>
    </contour>
    <contour>
      <point x="358" y="615" type="line"/>
      <point x="514" y="615" type="line"/>
      <point x="514" y="1349" type="line"/>
      <point x="757" y="1349" type="line"/>
      <point x="757" y="1464" type="line"/>
      <point x="116" y="1464" type="line"/>
      <point x="116" y="1349" type="line"/>
      <point x="358" y="1349" type="line"/>
    </contour>
  </outline>
</glyph>
<glyph name="Omega" format="1">
  <advance width="1758"/>
  <unicode hex="2126"/>
  <outline>
    <contour>
      <point x="108" y="0" type="line"/>
      <point x="783" y="0" type="line"/>
      <point x="783" y="123" type="line"/>
      <point x="492" y="240"/>
      <point x="338" y="511"/>
      <point x="338" y="780" type="curve" smooth="yes"/>
      <point x="338" y="1141"/>
      <point x="611" y="1317"/>
      <point x="879" y="1317" type="curve" smooth="yes"/>
      <point x="1148" y="1317"/>
      <point x="1420" y="1141"/>
      <point x="1420" y="780" type="curve" smooth="yes"/>
      <point x="1420" y="511"/>
      <point x="1266" y="240"/>
      <point x="975" y="123" type="curve"/>
      <point x="975" y="0" type="line"/>
      <point x="1650" y="0" type="line"/>
      <point x="1650" y="128" type="line"/>
      <point x="1216" y="128" type="line"/>
      <point x="1492" y="283"/>
      <point x="1624" y="538"/>
      <point x="1624" y="780" type="curve" smooth="yes"/>
      <point x="1624" y="1256"/>
      <point x="1253" y="1491"/>
      <point x="879" y="1491" type="curve" smooth="yes"/>
      <point x="505" y="1491"/>
      <point x="134" y="1256"/>
      <point x="134" y="780" type="curve" smooth="yes"/>
      <point x="134" y="538"/>
      <point x="266" y="283"/>
      <point x="542" y="128" type="curve"/>
      <point x="108" y="128" type="line"/>
    </contour>
  </outline>
</glyph>
<glyph name="emptyset" format="1">
  <advance width="1702"/>
  <unicode hex="2205"/>
  <outline>
    <contour>
      <point x="272" y="-74" type="line"/>
      <point x="422" y="102" type="line"/>
      <point x="542" y="20"/>
      <point x="690" y="-25"/>
      <point x="850" y="-25" type="curve" smooth="yes"/>
      <point x="1251" y="-25"/>
      <point x="1579" y="297"/>
      <point x="1579" y="696" type="curve" smooth="yes"/>
      <point x="1579" y="898"/>
      <point x="1495" y="1080"/>
      <point x="1362" y="1211" type="curve"/>
      <point x="1513" y="1389" type="line"/>
      <point x="1432" y="1457" type="line"/>
      <point x="1282" y="1279" type="line"/>
      <point x="1161" y="1367"/>
      <point x="1012" y="1419"/>
      <point x="850" y="1419" type="curve" smooth="yes"/>
      <point x="451" y="1419"/>
      <point x="123" y="1127"/>
      <point x="123" y="696" type="curve" smooth="yes"/>
      <point x="123" y="472"/>
      <point x="208" y="290"/>
      <point x="344" y="164" type="curve"/>
      <point x="198" y="-9" type="line"/>
    </contour>
    <contour>
      <point x="422" y="257" type="line"/>
      <point x="315" y="363"/>
      <point x="251" y="515"/>
      <point x="251" y="695" type="curve" smooth="yes"/>
      <point x="251" y="1049"/>
      <point x="509" y="1306"/>
      <point x="850" y="1306" type="curve" smooth="yes"/>
      <point x="985" y="1306"/>
      <point x="1107" y="1261"/>
      <point x="1205" y="1188" type="curve"/>
    </contour>
    <contour>
      <point x="849" y="88" type="curve" smooth="yes"/>
      <point x="716" y="88"/>
      <point x="596" y="125"/>
      <point x="499" y="193" type="curve"/>
      <point x="1283" y="1118" type="line"/>
      <point x="1388" y="1006"/>
      <point x="1451" y="855"/>
      <point x="1451" y="695" type="curve" smooth="yes"/>
      <point x="1451" y="371"/>
      <point x="1191" y="88"/>
    </contour>
  </outline>
</glyph>
<glyph name="minus" format="1">
  <advance width="1024"/>
  <unicode hex="2212"/>
  <outline>
    <contour>
      <point x="135" y="659" type="line"/>
      <point x="803" y="659" type="line"/>
      <point x="803" y="775" type="line"/>
      <point x="135" y="775" type="line"/>
    </contour>
  </outline>
</glyph>
<glyph name="radical" format="1">
  <advance width="1346"/>
  <unicode hex="221A"/>
  <outline>
    <contour>
      <point x="489" y="0" type="line"/>
      <point x="631" y="0" type="line"/>
      <point x="1243" y="1464" type="line"/>
      <point x="1041" y="1464" type="line"/>
      <point x="545" y="216" type="line"/>
      <point x="310" y="623" type="line"/>
      <point x="110" y="623" type="line"/>
    </contour>
  </outline>
</glyph>
<glyph name="infinity" format="1">
  <advance width="1606"/>
  <unicode hex="221E"/>
  <outline>
    <contour>
      <point x="1561" y="738" type="curve" smooth="yes"/>
      <point x="1561" y="950.279"/>
      <point x="1433.64" y="1166.03"/>
      <point x="1177.01" y="1166.03" type="curve" smooth="yes"/>
      <point x="1027.7" y="1166.03"/>
      <point x="880.086" y="1077.44"/>
      <point x="798" y="937" type="curve"/>
      <point x="726" y="1074"/>
      <point x="585" y="1162"/>
      <point x="435" y="1162" type="curve" smooth="yes"/>
      <point x="173" y="1162"/>
      <point x="41" y="945"/>
      <point x="41" y="730" type="curve" smooth="yes"/>
      <point x="41" y="514"/>
      <point x="172" y="300"/>
      <point x="432" y="300" type="curve" smooth="yes"/>
      <point x="578" y="300"/>
      <point x="714" y="393"/>
      <point x="782" y="542" type="curve"/>
      <point x="859" y="396"/>
      <point x="1010" y="303"/>
      <point x="1171" y="303" type="curve" smooth="yes"/>
      <point x="1171.59" y="302.998"/>
      <point x="1172.18" y="302.997"/>
      <point x="1172.77" y="302.997" type="curve" smooth="yes"/>
      <point x="1430.6" y="302.997"/>
      <point x="1561" y="521.494"/>
    </contour>
    <contour>
      <point x="435" y="493" type="curve" smooth="yes"/>
      <point x="282" y="493"/>
      <point x="205" y="613"/>
      <point x="205" y="732" type="curve" smooth="yes"/>
      <point x="205" y="850"/>
      <point x="281" y="967"/>
      <point x="433" y="967" type="curve" smooth="yes"/>
      <point x="551" y="967"/>
      <point x="664" y="857"/>
      <point x="724" y="680" type="curve"/>
      <point x="657" y="566"/>
      <point x="545" y="493"/>
    </contour>
    <contour>
      <point x="1169" y="493" type="curve" smooth="yes"/>
      <point x="1041" y="493"/>
      <point x="920" y="614"/>
      <point x="857" y="807" type="curve"/>
      <point x="922" y="906"/>
      <point x="1035" y="965"/>
      <point x="1150" y="965" type="curve" smooth="yes"/>
      <point x="1267" y="965"/>
      <point x="1395" y="889"/>
      <point x="1395" y="724" type="curve" smooth="yes"/>
      <point x="1395" y="607"/>
      <point x="1320" y="493"/>
    </contour>
  </outline>
</glyph>
<glyph name="approxequal" format="1">
  <advance width="1048"/>
  <unicode hex="2248"/>
  <outline>
    <contour>
      <point x="805" y="548" type="curve" smooth="yes"/>
      <point x="696.191" y="548"/>
      <point x="493.222" y="664.263"/>
      <point x="263.959" y="664.263" type="curve" smooth="yes"/>
      <point x="178.612" y="664.263"/>
      <point x="108.175" y="635.188"/>
      <point x="94" y="415" type="curve"/>
      <point x="212" y="415" type="line"/>
      <point x="211" y="498"/>
      <point x="245" y="525"/>
      <point x="304" y="525" type="curve" smooth="yes"/>
      <point x="419" y="525"/>
      <point x="628" y="419"/>
      <point x="849" y="408" type="curve" smooth="yes"/>
      <point x="853.159" y="407.806"/>
      <point x="857.23" y="407.706"/>
      <point x="861.215" y="407.706" type="curve" smooth="yes"/>
      <point x="959.749" y="407.706"/>
      <point x="1005.35" y="468.346"/>
      <point x="1014" y="650" type="curve"/>
      <point x="895" y="650" type="line"/>
      <point x="890" y="573"/>
      <point x="858" y="548"/>
    </contour>
    <contour>
      <point x="756" y="873" type="curve" smooth="yes"/>
      <point x="646.894" y="873"/>
      <point x="441.806" y="989.424"/>
      <point x="211.933" y="989.424" type="curve" smooth="yes"/>
      <point x="127.952" y="989.424"/>
      <point x="59.0073" y="957.646"/>
      <point x="45" y="741" type="curve"/>
      <point x="163" y="741" type="line"/>
      <point x="162" y="823"/>
      <point x="196" y="851"/>
      <point x="255" y="851" type="curve" smooth="yes"/>
      <point x="370" y="851"/>
      <point x="579" y="745"/>
      <point x="800" y="734" type="curve" smooth="yes"/>
      <point x="804.16" y="733.806"/>
      <point x="808.232" y="733.706"/>
      <point x="812.218" y="733.706" type="curve" smooth="yes"/>
      <point x="910.75" y="733.706"/>
      <point x="956.35" y="794.309"/>
      <point x="965" y="975" type="curve"/>
      <point x="846" y="975" type="line"/>
      <point x="841" y="899"/>
      <point x="809" y="873"/>
    </contour>
  </outline>
</glyph>
<glyph name="lozenge" format="1">
  <advance width="1054"/>
  <unicode hex="25CA"/>
  <outline>
    <contour>
      <point x="451" y="0" type="line"/>
      <point x="590" y="0" type="line"/>
      <point x="1023" y="699" type="line"/>
      <point x="590" y="1398" type="line"/>
      <point x="451" y="1398" type="line"/>
      <point x="30" y="699" type="line"/>
    </contour>
    <contour>
      <point x="528" y="200" type="line"/>
      <point x="236" y="699" type="line"/>
      <point x="528" y="1198" type="line"/>
      <point x="824" y="699" type="line"/>
    </contour>
  </outline>
</glyph>
